<?xml version="1.0" encoding="UTF-8"?>
<svg width="180" height="180" enable-background="new 0 0 512 512" version="1.1" viewBox="0 0 180 180" xml:space="preserve" xmlns="http://www.w3.org/2000/svg" xmlns:cc="http://creativecommons.org/ns#" xmlns:dc="http://purl.org/dc/elements/1.1/" xmlns:rdf="http://www.w3.org/1999/02/22-rdf-syntax-ns#" xmlns:xlink="http://www.w3.org/1999/xlink"><metadata><rdf:RDF><cc:Work rdf:about=""><dc:format>image/svg+xml</dc:format><dc:type rdf:resource="http://purl.org/dc/dcmitype/StillImage"/><dc:title/></cc:Work></rdf:RDF></metadata><defs><linearGradient id="ad" x1="80.456" x2="175.81" y1="255.11" y2="77.118" gradientTransform="matrix(-.15662 .47774 -.44229 -.16918 127.43 51.552)" gradientUnits="userSpaceOnUse"><stop stop-color="#c1e3f1" offset="0"/><stop stop-color="#82c7e3" offset="1"/></linearGradient></defs><path d="m109.86 104.31c1.2115-8.565-1.7647-16.567-8.2002-21.959-.76525-.66229-2.9081-2.1419-4.7632-3.3003-3.7322-2.3252-10.014-6.3119-18.622-11.743-3.1301-1.9892-9.5355-6.0495-14.238-9.0099-4.7028-2.9604-9.4339-5.9843-10.513-6.6615-11.346-7.2696-24.735-8.3792-34.812-2.8882-8.0389 4.3694-14.33 12.47-16.876 21.66-3.5878 13.041-.91401 24.888 7.8672 34.661 3.0345 3.4045 7.0431 6.3105 11.605 8.4255 4.7294 2.205 4.5034 2.145 27.495 5.1315 12.832 1.6875 24.612 3.2106 32.025 4.1981 2.9214.37827 6.1367.68421 7.1389.69804 7.8447.0437 14.509-3.5048 18.444-9.8135 1.4262-2.2527 3.0863-6.792 3.4496-9.3982zm-7.297 4.6533c-2.7071 5.0362-8.3121 8.1986-13.662 7.7364-1.9805-.17679-4.9279-1.225-6.6741-2.3417-4.1585-2.673-6.9936-8.4827-6.84-14.047.04693-2.0149 1.2589-6.0126 2.3183-7.7454.93111-1.4917 2.9337-3.6296 4.4361-4.6916 1.5025-1.062 4.1306-2.0366 6.1623-2.3155 2.4642-.32465 4.3985-.0064 7.1755 1.1871 1.9988.87013 2.5855 1.253 3.8695 2.4305 5.3442 4.9744 6.6902 13.304 3.2139 19.788z" fill="url(#ad)" stroke-width="6.4286"/><path d="m109.57 103.67c1.2115-8.565-1.7647-16.567-8.2002-21.959-.76525-.66229-2.9081-2.1419-4.7633-3.3003-3.7322-2.3252-10.014-6.3119-18.622-11.743-3.1301-1.9892-9.5355-6.0495-14.238-9.0099-4.7028-2.9604-9.4339-5.9843-10.513-6.6615-11.346-7.2696-24.735-8.3792-34.812-2.8882-8.0389 4.3694-14.33 12.47-16.876 21.66-3.5878 13.041-.91401 24.888 7.8672 34.661 3.0345 3.4046 7.0431 6.3105 11.605 8.4255 4.7293 2.205 4.5034 2.145 27.495 5.1315 12.832 1.6876 24.612 3.2106 32.025 4.198 2.9214.37827 6.1367.68421 7.1389.69804 7.8447.0437 14.509-3.5048 18.444-9.8135 1.4262-2.2528 3.0863-6.792 3.4496-9.3982zm-7.297 4.6533c-2.7071 5.0362-8.3121 8.1986-13.662 7.7364-1.9805-.17679-4.9279-1.2249-6.6741-2.3417-4.1584-2.673-6.9936-8.4828-6.84-14.047.04693-2.0149 1.2589-6.0126 2.3183-7.7454.93111-1.4917 2.9337-3.6296 4.4361-4.6916 1.5025-1.062 4.1306-2.0366 6.1623-2.3155 2.4641-.32459 4.3985-.0064 7.1755 1.1871 1.9988.87013 2.5856 1.253 3.8695 2.4305 5.3442 4.9744 6.6908 13.304 3.214 19.788z" fill="url(#linearGradient13502)" stroke-width="6.4286"/></svg>
