<?xml version="1.0" encoding="UTF-8" standalone="no"?>
<svg
   xmlns:dc="http://purl.org/dc/elements/1.1/"
   xmlns:cc="http://creativecommons.org/ns#"
   xmlns:rdf="http://www.w3.org/1999/02/22-rdf-syntax-ns#"
   xmlns:svg="http://www.w3.org/2000/svg"
   xmlns="http://www.w3.org/2000/svg"
   xmlns:xlink="http://www.w3.org/1999/xlink"
   xmlns:sodipodi="http://sodipodi.sourceforge.net/DTD/sodipodi-0.dtd"
   xmlns:inkscape="http://www.inkscape.org/namespaces/inkscape"
   width="180"
   height="180"
   enable-background="new 0 0 512 512"
   version="1.1"
   viewBox="0 0 180 180"
   xml:space="preserve"
   id="svg186"
   sodipodi:docname="appicon.svg"
   inkscape:version="0.92.2 5c3e80d, 2017-08-06"><sodipodi:namedview
     pagecolor="#ffffff"
     bordercolor="#666666"
     borderopacity="1"
     objecttolerance="10"
     gridtolerance="10"
     guidetolerance="10"
     inkscape:pageopacity="0"
     inkscape:pageshadow="2"
     inkscape:window-width="1192"
     inkscape:window-height="745"
     id="namedview188"
     showgrid="false"
     inkscape:zoom="1.3111111"
     inkscape:cx="87.330508"
     inkscape:cy="120.50847"
     inkscape:window-x="206"
     inkscape:window-y="39"
     inkscape:window-maximized="0"
     inkscape:current-layer="svg186"
     inkscape:pagecheckerboard="false" /><metadata
     id="metadata2"><rdf:RDF><cc:Work
         rdf:about=""><dc:format>image/svg+xml</dc:format><dc:type
           rdf:resource="http://purl.org/dc/dcmitype/StillImage" /><dc:title></dc:title></cc:Work></rdf:RDF></metadata><defs
     id="defs102"><linearGradient
       id="c"><stop
         stop-color="#646464"
         offset="0"
         id="stop4" /><stop
         stop-color="#e1e1e1"
         offset="1"
         id="stop6" /></linearGradient><linearGradient
       id="a"
       x1="98.66"
       x2="140.98"
       y1="7.7561"
       y2="77.632"
       gradientTransform="scale(.99763 1.0024)"
       gradientUnits="userSpaceOnUse"><stop
         stop-color="#3c3c3c"
         offset="0"
         id="stop9" /><stop
         stop-color="#010101"
         offset="1"
         id="stop11" /></linearGradient><linearGradient
       id="b"
       x1="91.343"
       x2="140.91"
       y1="7.637"
       y2="73.924"
       gradientTransform="scale(.99781 1.0022)"
       gradientUnits="userSpaceOnUse"
       xlink:href="#c"><stop
         stop-color="#646464"
         offset="0"
         id="stop14" /><stop
         stop-color="#e1e1e1"
         offset="1"
         id="stop16" /></linearGradient><linearGradient
       id="r"
       x1="131.97"
       x2="85.398"
       y1="-8.8752"
       y2="202.59"
       gradientUnits="userSpaceOnUse"
       gradientTransform="matrix(0.27635951,-0.33740288,0.31236611,0.29850922,43.706808,126.38575)"><stop
         stop-color="#505050"
         offset="0"
         id="stop19" /><stop
         offset="1"
         id="stop21" /></linearGradient><linearGradient
       id="q"
       x1="281.75"
       x2="285.96"
       y1="159.47"
       y2="409.12"
       gradientTransform="matrix(0.43400407,0,0,0.43206521,-120.12397,55.901945)"
       gradientUnits="userSpaceOnUse"><stop
         offset="0"
         id="stop24" /><stop
         stop-color="#515151"
         offset="1"
         id="stop26" /></linearGradient><linearGradient
       id="p"
       x1="125.5"
       x2="114.87"
       y1="99.637"
       y2="208.83"
       gradientUnits="userSpaceOnUse"
       gradientTransform="matrix(0.43613678,0,0,0.43206521,-61.35456,114.23075)"><stop
         stop-color="#282828"
         offset="0"
         id="stop29" /><stop
         stop-color="#141414"
         offset="1"
         id="stop31" /></linearGradient><linearGradient
       id="o"
       x1="91.343"
       x2="140.91"
       y1="7.637"
       y2="73.924"
       gradientTransform="matrix(0.43518164,0,0,0.43301575,-61.35456,114.23075)"
       gradientUnits="userSpaceOnUse"
       xlink:href="#b" /><linearGradient
       id="n"
       x1="98.66"
       x2="140.98"
       y1="7.7561"
       y2="77.632"
       gradientTransform="matrix(0.43510313,0,0,0.43310217,-61.35456,114.23075)"
       gradientUnits="userSpaceOnUse"
       xlink:href="#a" /><linearGradient
       id="m"
       x1="50.995"
       x2="191"
       y1="120"
       y2="120"
       gradientTransform="matrix(0.2763541,0.33740529,-0.31235942,0.2985065,70.672566,46.817113)"
       gradientUnits="userSpaceOnUse"><stop
         stop-color="#e1e1e1"
         offset="0"
         id="stop36" /><stop
         stop-color="#707070"
         offset="1"
         id="stop38" /></linearGradient><linearGradient
       id="l"
       x1="186.2"
       x2="324.72"
       y1="135.59"
       y2="375.32"
       gradientTransform="matrix(0.43400251,0,0,0.43205849,24.149243,-83.411922)"
       gradientUnits="userSpaceOnUse"
       xlink:href="#c" /><linearGradient
       id="k"
       x1="97.392"
       x2="141.9"
       y1="127.02"
       y2="199.04"
       gradientTransform="matrix(0.4361352,0,0,0.43205849,82.916281,-25.082729)"
       gradientUnits="userSpaceOnUse"><stop
         stop-color="#dfdfdf"
         offset="0"
         id="stop42" /><stop
         stop-color="#141414"
         offset="1"
         id="stop44" /></linearGradient><linearGradient
       id="j"
       x1="91.343"
       x2="140.91"
       y1="7.637"
       y2="73.924"
       gradientTransform="matrix(0.43518008,0,0,0.43300902,82.916281,-25.082729)"
       gradientUnits="userSpaceOnUse"
       xlink:href="#b" /><linearGradient
       id="i"
       x1="98.66"
       x2="140.98"
       y1="7.7561"
       y2="77.632"
       gradientTransform="matrix(0.43510157,0,0,0.43309543,82.916281,-25.082729)"
       gradientUnits="userSpaceOnUse"
       xlink:href="#a" /><linearGradient
       id="h"
       x1="195.1"
       x2="48.877"
       y1="216.63"
       y2="99.162"
       gradientTransform="matrix(-0.41692301,-0.01179264,0.01091751,-0.45034281,139.03462,119.95839)"
       gradientUnits="userSpaceOnUse"><stop
         stop-color="#dff2c0"
         offset="0"
         id="stop49" /><stop
         stop-color="#b3e16b"
         offset="1"
         id="stop51" /></linearGradient><linearGradient
       id="g"
       x1="340.32"
       x2="172.48"
       y1="359.79"
       y2="160.47"
       gradientTransform="matrix(0.41505019,0,0,0.45047513,-198.40416,-176.78588)"
       gradientUnits="userSpaceOnUse"><stop
         stop-color="#a2d948"
         offset="0"
         id="stop54" /><stop
         stop-color="#e9f6d5"
         offset="1"
         id="stop56" /></linearGradient><linearGradient
       id="f"
       x1="146.22"
       x2="93.332"
       y1="198.7"
       y2="137.47"
       gradientTransform="matrix(0.41708976,0,0,0.45047513,-142.20549,-115.97173)"
       gradientUnits="userSpaceOnUse"><stop
         stop-color="#e9f6d5"
         offset="0"
         id="stop59" /><stop
         stop-color="#a2d948"
         offset="1"
         id="stop61" /></linearGradient><linearGradient
       id="e"
       x1="91.343"
       x2="140.91"
       y1="7.637"
       y2="73.924"
       gradientTransform="matrix(0.41617633,0,0,0.45146618,-141.90519,-115.98074)"
       gradientUnits="userSpaceOnUse"
       xlink:href="#b" /><linearGradient
       id="d"
       x1="98.66"
       x2="140.98"
       y1="7.7561"
       y2="77.632"
       gradientTransform="matrix(0.41610125,0,0,0.45155627,-141.90519,-115.98074)"
       gradientUnits="userSpaceOnUse"
       xlink:href="#a" /><linearGradient
       id="ad"
       x1="80.456"
       x2="175.81"
       y1="255.11"
       y2="77.118"
       gradientTransform="matrix(-0.13922214,0.42465783,-0.39314656,-0.15038143,123.27525,55.823952)"
       gradientUnits="userSpaceOnUse"><stop
         stop-color="#c1e3f1"
         offset="0"
         id="stop66" /><stop
         stop-color="#82c7e3"
         offset="1"
         id="stop68" /></linearGradient><linearGradient
       id="ac"
       x1="387.25"
       x2="196.65"
       y1="172.75"
       y2="387.51"
       gradientTransform="matrix(0.44471281,0,0,0.42092585,-52.129155,-191.61176)"
       gradientUnits="userSpaceOnUse"><stop
         stop-color="#eaf6fa"
         offset="0"
         id="stop71" /><stop
         stop-color="#44acd5"
         offset="1"
         id="stop73" /></linearGradient><linearGradient
       id="ab"
       x1="89.66"
       x2="148.79"
       y1="202.53"
       y2="127.66"
       gradientTransform="matrix(0.44689571,0,0,0.42092585,8.0881935,-134.78317)"
       gradientUnits="userSpaceOnUse"><stop
         stop-color="#eaf6fa"
         offset="0"
         id="stop76" /><stop
         stop-color="#44acd5"
         offset="1"
         id="stop78" /></linearGradient><linearGradient
       id="aa"
       x1="91.343"
       x2="140.91"
       y1="7.637"
       y2="73.924"
       gradientTransform="matrix(0.44591717,0,0,0.42184858,8.1089453,-134.69534)"
       gradientUnits="userSpaceOnUse"
       xlink:href="#b" /><linearGradient
       id="z"
       x1="98.66"
       x2="140.98"
       y1="7.7561"
       y2="77.632"
       gradientTransform="matrix(0.44583673,0,0,0.42193276,8.1089453,-134.69534)"
       gradientUnits="userSpaceOnUse"
       xlink:href="#a" /><linearGradient
       id="y"
       x1="91.343"
       x2="140.91"
       y1="7.637"
       y2="73.924"
       gradientTransform="matrix(0.41617918,0,0,0.45146553,-141.14341,-115.98627)"
       gradientUnits="userSpaceOnUse"
       xlink:href="#b" /><linearGradient
       id="x"
       x1="98.66"
       x2="140.98"
       y1="7.7561"
       y2="77.632"
       gradientTransform="matrix(0.41609918,0,0,0.45155221,-141.14341,-115.98627)"
       gradientUnits="userSpaceOnUse"
       xlink:href="#a" /><linearGradient
       id="w"
       x1="195.35"
       x2="41.987"
       y1="68.343"
       y2="206.32"
       gradientTransform="matrix(-0.11845082,-0.43194375,0.3998951,-0.1279465,86.675428,155.94683)"
       gradientUnits="userSpaceOnUse"><stop
         stop-color="#f7a1c0"
         offset="0"
         id="stop85" /><stop
         stop-color="#f471a1"
         offset="1"
         id="stop87" /></linearGradient><linearGradient
       id="v"
       x1="340.32"
       x2="172.48"
       y1="359.79"
       y2="160.47"
       gradientTransform="matrix(0.44570259,0,0,0.41986252,-235.6816,-14.577107)"
       gradientUnits="userSpaceOnUse"><stop
         stop-color="#fde7ef"
         offset="0"
         id="stop90" /><stop
         stop-color="#f04080"
         offset="1"
         id="stop92" /></linearGradient><linearGradient
       id="u"
       x1="146.22"
       x2="93.332"
       y1="198.7"
       y2="137.47"
       gradientTransform="matrix(0.44789123,0,0,0.41986252,-175.32581,42.10399)"
       gradientUnits="userSpaceOnUse"><stop
         stop-color="#f04080"
         offset="0"
         id="stop95" /><stop
         stop-color="#fde7ef"
         stop-opacity=".94118"
         offset="1"
         id="stop97" /></linearGradient><linearGradient
       id="t"
       x1="91.343"
       x2="140.91"
       y1="7.637"
       y2="73.924"
       gradientTransform="matrix(0.44691515,0,0,0.42078143,-175.09859,42.389915)"
       gradientUnits="userSpaceOnUse"
       xlink:href="#b" /><linearGradient
       id="s"
       x1="98.66"
       x2="140.98"
       y1="7.7561"
       y2="77.632"
       gradientTransform="matrix(0.44682847,0,0,0.42086143,-175.09859,42.389915)"
       gradientUnits="userSpaceOnUse"
       xlink:href="#a" /></defs><rect
     id="rect4803"
     width="180"
     height="180"
     x="0"
     y="0"
     style="fill:#ffefd5;fill-opacity:1" /><path
     d="M 101.0717,84.314664 C 95.429428,79.60629 88.387256,78.657018 81.733357,81.737496 c -0.806477,0.357224 -2.794793,1.51904 -4.427994,2.577687 -3.281805,2.132085 -8.858311,5.689357 -16.477022,10.577747 -2.780551,1.77123 -8.463281,5.40028 -12.620183,8.07361 -4.157257,2.67341 -8.372591,5.3433 -9.324964,5.95826 -10.121541,6.39468 -16.689968,17.16091 -17.080585,27.98907 -0.319374,8.63373 2.800172,17.40716 8.316934,23.50542 7.840355,8.63302 17.51863,11.49279 28.337159,8.3311 3.758033,-1.08097 7.576916,-3.19471 11.065115,-6.1146 3.625059,-3.02125 3.484498,-2.85742 15.541726,-20.87744 6.744162,-10.0481 12.917172,-19.28491 16.822037,-25.08384 1.53117,-2.29022 3.13684,-4.85828 3.57877,-5.69406 3.41221,-6.56874 3.73001,-13.69464 0.88496,-19.71808 -1.00676,-2.168461 -3.55856,-5.518703 -5.27784,-6.947018 z m 0.20465,8.132926 c 2.45817,4.44366 2.31865,10.51327 -0.31951,14.80626 -0.980697,1.58695 -3.005289,3.61037 -4.561419,4.59545 -3.715849,2.34017 -9.119262,2.21723 -13.05749,-0.3097 -1.430129,-0.90742 -3.785018,-3.6483 -4.575963,-5.28484 -0.672414,-1.42476 -1.348146,-4.02772 -1.465077,-5.74711 -0.116894,-1.71941 0.314177,-4.34642 0.989054,-6.17279 0.82826,-2.20916 1.890386,-3.69673 3.946412,-5.513913 1.48762,-1.303505 2.01596,-1.631233 3.416825,-2.202045 5.883394,-2.344173 12.458271,0.114798 15.626728,5.828448 z"
     id="path104"
     style="fill:url(#m);stroke-width:0.43345729"
     inkscape:connector-curvature="0" /><path
     d="m 100.48509,84.277833 c -5.642263,-4.708375 -12.684436,-5.657647 -19.338334,-2.577169 -0.806478,0.357224 -2.794794,1.51904 -4.427994,2.577687 -3.281805,2.132086 -8.858312,5.689358 -16.477022,10.577739 -2.780552,1.77124 -8.463282,5.40028 -12.620184,8.07362 -4.157256,2.67341 -8.372591,5.34329 -9.324963,5.95827 -10.121542,6.39468 -16.689967,17.1609 -17.080585,27.98906 -0.319375,8.63373 2.800173,17.40716 8.316933,23.50542 7.840338,8.63306 17.518632,11.49278 28.337159,8.3311 3.758033,-1.08098 7.576917,-3.19471 11.065116,-6.11459 3.625058,-3.02126 3.484497,-2.85744 15.541725,-20.87744 6.744162,-10.04811 12.917173,-19.28491 16.822039,-25.08385 1.53117,-2.29023 3.13684,-4.85828 3.57876,-5.69406 3.41223,-6.56873 3.73001,-13.69464 0.88497,-19.71808 -1.00676,-2.168461 -3.55855,-5.518705 -5.27784,-6.94702 z m 0.20466,8.132917 c 2.45817,4.44366 2.31865,10.51328 -0.31951,14.80626 -0.980709,1.58696 -3.005291,3.61038 -4.56142,4.59545 -3.71585,2.34018 -9.119262,2.21723 -13.05749,-0.3097 -1.43013,-0.90742 -3.785018,-3.64829 -4.575963,-5.28483 -0.672415,-1.42477 -1.348147,-4.02772 -1.465078,-5.74712 -0.116893,-1.7194 0.314177,-4.34641 0.989054,-6.17278 0.82826,-2.20916 1.890386,-3.69673 3.946412,-5.513915 1.48762,-1.303505 2.015961,-1.631233 3.416825,-2.202045 5.883395,-2.344172 12.458271,0.114798 15.62673,5.82845 z"
     id="path106"
     inkscape:connector-curvature="0"
     style="fill:url(#linearGradient13502);stroke-width:0.43345729" /><ellipse
     transform="matrix(0.63364317,0.77362545,-0.72295633,0.69089373,0,0)"
     cx="134.73134"
     cy="46.65065"
     rx="19.74733"
     ry="19.658661"
     id="ellipse108"
     style="fill:#b3b3b3;stroke-width:0.43409204" /><ellipse
     style="fill:url(#l);stroke:url(#k);stroke-width:0.5209105;stroke-linecap:square"
     id="ellipse110"
     ry="17.528614"
     rx="17.607651"
     cy="46.564236"
     cx="134.94942"
     transform="matrix(0.63364317,0.77362545,-0.72295633,0.69089373,0,0)" /><ellipse
     style="fill:none;stroke:url(#j);stroke-width:3.19569898;stroke-linecap:square"
     id="ellipse112"
     ry="13.527752"
     rx="13.588664"
     cy="-6.6578555"
     cx="134.39551"
     transform="matrix(0.63364317,0.77362545,-0.72295633,0.69089373,0,0)" /><ellipse
     style="fill:none;stroke:url(#i);stroke-width:0.91727996;stroke-linecap:square"
     id="ellipse114"
     ry="14.664498"
     rx="14.730467"
     cy="-6.6028543"
     cx="134.42169"
     transform="matrix(0.63364317,0.77362545,-0.72295633,0.69089373,0,0)" /><path
     d="M 107.65247,102.72245 C 108.72938,95.10908 106.08385,87.996299 100.36336,83.20359 99.683139,82.614889 97.7784,81.29965 96.12938,80.270021 92.811911,78.20322 87.227711,74.659404 79.576322,69.832009 76.794051,68.063788 71.100366,64.454656 66.920386,61.82321 62.740123,59.191762 58.534715,56.5038 57.575292,55.901897 47.4902,49.439998 35.588547,48.453685 26.63145,53.334566 19.485772,57.218505 13.8938,64.418883 11.630954,72.587687 8.4418279,84.180019 10.818502,94.71004 18.624061,103.39773 c 2.697301,3.02625 6.26054,5.60936 10.315948,7.48936 4.203922,1.95999 4.003065,1.90662 24.439875,4.56132 11.406228,1.50005 21.877603,2.85392 28.466712,3.73165 2.596787,0.33624 5.45483,0.60819 6.345682,0.62048 6.973107,0.0388 12.897082,-3.11541 16.394782,-8.72311 1.26776,-2.0024 2.74335,-6.03731 3.06627,-8.35395 z m -6.48626,4.13623 c -2.406332,4.47665 -7.388532,7.28764 -12.143937,6.87677 -1.760447,-0.15714 -4.38032,-1.08889 -5.93254,-2.08154 -3.696439,-2.37596 -6.21654,-7.54022 -6.079969,-12.48609 0.04171,-1.79102 1.119023,-5.3445 2.060675,-6.88477 0.827652,-1.32598 2.607701,-3.22632 3.943237,-4.170348 1.335535,-0.944027 3.671638,-1.810337 5.477572,-2.05823 2.190389,-0.288579 3.909809,-0.0057 6.378253,1.055172 1.776677,0.773452 2.298217,1.113747 3.439587,2.160406 4.750372,4.42167 5.946822,11.8255 2.856842,17.58909 z"
     id="path120"
     style="fill:url(#ad);stroke-width:5.71435308"
     inkscape:connector-curvature="0" /><path
     d="m 107.39533,102.15101 c 1.0769,-7.61338 -1.56863,-14.726156 -7.28911,-19.518864 -0.680227,-0.588702 -2.584961,-1.90394 -4.234039,-2.93357 C 92.554712,77.631775 86.970513,74.088017 79.319123,69.260564 76.536852,67.4924 70.843167,63.883211 66.663188,61.251764 62.482923,58.620318 58.277516,55.932354 57.318093,55.330452 47.233002,48.868554 35.331348,47.88224 26.374251,52.763122 19.228573,56.647061 13.636601,63.847437 11.373756,72.016243 8.184572,83.608574 10.561303,94.13859 18.366863,102.82628 c 2.697301,3.02632 6.26054,5.60937 10.315947,7.48936 4.203864,1.95999 4.003065,1.90662 24.439875,4.56133 11.406228,1.50004 21.877603,2.85391 28.466713,3.73159 2.596786,0.33624 5.454829,0.60819 6.345681,0.62047 6.973107,0.0388 12.897081,-3.11534 16.394781,-8.7231 1.26776,-2.00245 2.74336,-6.03731 3.06627,-8.35396 z m -6.48625,4.13623 c -2.406339,4.47665 -7.388543,7.28763 -12.143948,6.87676 -1.760448,-0.15714 -4.380321,-1.08883 -5.932541,-2.08154 -3.696381,-2.37596 -6.21654,-7.54021 -6.079969,-12.48609 0.04172,-1.79102 1.119023,-5.34449 2.060676,-6.88476 0.827652,-1.32598 2.6077,-3.226326 3.943236,-4.170352 1.335537,-0.944028 3.671639,-1.810338 5.477572,-2.058231 2.190332,-0.288523 3.909809,-0.0057 6.378253,1.055173 1.776734,0.773451 2.298275,1.113746 3.439583,2.160406 4.750388,4.421724 5.947408,11.825494 2.856848,17.589084 z"
     id="path122"
     inkscape:connector-curvature="0"
     style="fill:url(#linearGradient13502);stroke-width:5.71435308" /><ellipse
     transform="matrix(-0.31153144,0.95023585,-0.93400494,-0.35726009,0,0)"
     cx="61.201378"
     cy="-64.805992"
     rx="20.234167"
     ry="19.152006"
     id="ellipse124"
     style="fill:#acdaec;stroke-width:5.71435022" /><ellipse
     transform="matrix(-0.31153144,0.95023585,-0.93400494,-0.35726009,0,0)"
     cx="61.40139"
     cy="-64.983139"
     rx="18.042118"
     ry="17.07715"
     id="ellipse126"
     style="fill:url(#ac);stroke:url(#ab);stroke-width:0.52045733;stroke-linecap:square" /><ellipse
     transform="matrix(-0.31152553,0.95023778,-0.93400474,-0.35726062,0,0)"
     cx="60.859634"
     cy="-116.7472"
     rx="13.923934"
     ry="13.179085"
     id="ellipse130"
     style="fill:none;stroke:url(#aa);stroke-width:3.19292188;stroke-linecap:square" /><ellipse
     transform="matrix(-0.31152553,0.95023778,-0.93400474,-0.35726062,0,0)"
     cx="60.884659"
     cy="-116.69247"
     rx="15.093907"
     ry="14.286532"
     id="ellipse132"
     style="fill:none;stroke:url(#z);stroke-width:0.91648287;stroke-linecap:square" /><path
     d="m 92.914209,118.39947 c 7.035907,-1.2463 12.481531,-6.16191 14.933471,-13.51942 0.30814,-0.88073 0.87754,-3.24385 1.27459,-5.25596 0.79459,-4.0467 2.1893,-10.878169 4.07532,-20.230492 0.69708,-3.404587 2.11552,-10.368643 3.14067,-15.47638 1.02515,-5.107286 2.09234,-10.258271 2.3256,-11.430014 2.57343,-12.357138 -0.23652,-24.888618 -7.30157,-32.581759 -5.62789,-6.140726 -13.695615,-9.659559 -21.587336,-9.46044 -11.192382,0.306036 -19.729304,6.001524 -24.966401,16.704435 -1.831086,3.70606 -3.004376,8.16436 -3.406261,12.911699 -0.426659,4.924385 -0.441756,4.701389 3.536135,26.516265 2.20386,12.180994 4.247817,23.356477 5.511109,30.396396 0.506402,2.77156 1.150143,5.7916 1.414646,6.71062 2.120363,7.17553 6.728525,12.28641 12.746786,14.14697 2.154855,0.68354 6.163401,0.95257 8.302949,0.56839 z m -5.646239,-5.38525 c -4.685318,-1.08868 -8.699578,-5.33794 -9.807305,-10.35018 -0.405655,-1.85703 -0.394878,-4.83654 -4.17e-4,-6.73765 0.949742,-4.53154 4.71785,-8.716215 9.114975,-10.104197 1.589731,-0.510954 5.051504,-0.501943 6.698914,-0.01065 1.423279,0.440501 3.646532,1.681886 4.890516,2.762134 1.2439,1.080247 2.728577,3.212453 3.504857,4.991063 0.9309,2.16094 1.2137,4.01456 1.04187,6.87821 -0.13198,2.06417 -0.27042,2.7051 -0.8393,4.20107 -2.425278,6.24614 -8.574045,9.76363 -14.603985,8.37023 z"
     id="path134"
     style="fill:url(#h);stroke-width:0.43345937"
     inkscape:connector-curvature="0" /><path
     d="m 93.339616,117.96248 c 7.035904,-1.2463 12.481544,-6.16189 14.933464,-13.51942 0.30814,-0.88072 0.87755,-3.24385 1.2746,-5.25596 0.7946,-4.04668 2.1893,-10.878162 4.07532,-20.230484 0.69708,-3.404587 2.11548,-10.368643 3.14067,-15.47638 1.02514,-5.107287 2.09233,-10.258272 2.3256,-11.430015 2.57342,-12.357138 -0.23652,-24.888617 -7.30157,-32.581758 -5.62789,-6.140726 -13.695616,-9.6595605 -21.587339,-9.460439 -11.192382,0.306027 -19.729304,6.001522 -24.966401,16.704433 -1.831086,3.706061 -3.004376,8.164361 -3.406261,12.9117 -0.426658,4.924385 -0.441756,4.701389 3.536135,26.516265 2.20386,12.180993 4.247817,23.356477 5.51111,30.396398 0.506402,2.77155 1.150143,5.79161 1.414687,6.71062 2.120363,7.17552 6.728525,12.28641 12.746786,14.14696 2.154855,0.68355 6.1634,0.95259 8.302948,0.5684 z m -5.646239,-5.38525 c -4.685318,-1.08866 -8.699577,-5.33793 -9.807305,-10.35017 -0.405651,-1.85703 -0.394882,-4.83655 -4.17e-4,-6.73765 0.949742,-4.53155 4.71785,-8.716217 9.114976,-10.104198 1.58973,-0.510955 5.051503,-0.501945 6.698913,-0.01065 1.423279,0.440499 3.646532,1.681886 4.890512,2.762133 1.243909,1.080247 2.728574,3.212455 3.504864,4.991055 0.93089,2.16099 1.2137,4.01457 1.04187,6.87822 -0.13198,2.06417 -0.27043,2.7051 -0.8393,4.20107 -2.425285,6.24613 -8.574048,9.76362 -14.603988,8.37023 z"
     id="path136"
     inkscape:connector-curvature="0"
     style="fill:url(#linearGradient13502);stroke-width:0.43345937" /><ellipse
     transform="matrix(-0.99960022,-0.02827364,0.02423554,-0.99970628,0,0)"
     cx="-92.350754"
     cy="-41.190163"
     rx="18.884991"
     ry="20.496618"
     id="ellipse138"
     style="fill:#e9f6d5;stroke-width:0.43346113" /><ellipse
     style="fill:url(#g);stroke:url(#f);stroke-width:0.5201534;stroke-linecap:square"
     id="ellipse140"
     ry="18.275776"
     rx="16.838749"
     cy="-41.270798"
     cx="-92.446686"
     transform="matrix(-0.99960022,-0.02827364,0.02423554,-0.99970628,0,0)" /><ellipse
     style="fill:none;stroke:url(#e);stroke-width:3.19105434;stroke-linecap:square"
     id="ellipse142"
     ry="14.104377"
     rx="12.995265"
     cy="-96.769791"
     cx="-92.671906"
     transform="matrix(-0.99960022,-0.02827364,0.02423554,-0.99970628,0,0)" /><ellipse
     style="fill:none;stroke:url(#d);stroke-width:0.91594672;stroke-linecap:square"
     id="ellipse144"
     ry="15.289577"
     rx="14.087207"
     cy="-96.71257"
     cx="-92.646881"
     transform="matrix(-0.99960022,-0.02827364,0.02423554,-0.99970628,0,0)" /><ellipse
     style="fill:none;stroke:url(#y);stroke-width:3.19108295;stroke-linecap:square"
     id="ellipse150"
     ry="14.104175"
     rx="12.995308"
     cy="-96.779373"
     cx="-91.910172"
     transform="matrix(-0.9996002,-0.02827429,0.02423466,-0.9997063,0,0)" /><ellipse
     style="fill:none;stroke:url(#x);stroke-width:0.91593802;stroke-linecap:square"
     id="ellipse152"
     ry="15.289522"
     rx="14.087306"
     cy="-96.712708"
     cx="-91.890167"
     transform="matrix(-0.9996002,-0.02827429,0.02423466,-0.9997063,0,0)" /><path
     d="m 73.795494,108.08261 c 3.271641,6.84305 9.28281,10.91801 16.518202,11.16317 0.870681,0.0445 3.127298,-0.10092 5.021746,-0.31487 3.808551,-0.43418 10.254238,-1.11243 19.071898,-2.06503 3.21314,-0.33595 9.78338,-1.03089 14.59708,-1.55605 4.8138,-0.52514 9.6788,-1.02053 10.7828,-1.14305 11.67536,-1.17489 21.84103,-7.93394 26.43129,-17.56967 3.66758,-7.67907 4.27301,-17.054195 1.65891,-25.100139 -3.7281,-11.403183 -11.38108,-18.413097 -22.42331,-20.485728 -3.82896,-0.735792 -8.11711,-0.563387 -12.42108,0.490644 -4.46759,1.083401 -4.2761,0.999056 -22.25418,11.826622 -10.04394,6.028172 -19.252474,11.581473 -25.060445,15.054716 -2.283817,1.376668 -4.743976,2.971285 -5.471572,3.527014 -5.6626,4.395612 -8.738813,10.708871 -8.5171,17.466791 0.06405,2.42488 1.065881,6.62591 2.065361,8.7054 z m 2.996728,-7.46421 c -0.489255,-5.14949 2.011704,-10.58662 6.082826,-13.273548 1.509763,-0.9906 4.136264,-1.90017 5.93197,-2.082403 4.283406,-0.424641 9.132525,2.153262 11.713092,6.241321 0.94113,1.47524 2.00295,5.03426 2.07947,6.87848 0.052,1.59824 -0.35405,4.26579 -0.9208,5.87733 -0.56679,1.61165 -1.985303,3.79577 -3.311408,5.14283 -1.615023,1.62405 -3.159644,2.48738 -5.73426,3.19575 -1.858276,0.5023 -2.465358,0.55813 -3.958322,0.43601 -6.249111,-0.56121 -11.246229,-5.79102 -11.882796,-12.41577 z"
     id="path154"
     style="fill:url(#w);stroke-width:5.71435308"
     inkscape:connector-curvature="0" /><path
     d="m 74.315491,108.38547 c 3.271641,6.84305 9.282811,10.91802 16.518202,11.16318 0.870681,0.0445 3.127299,-0.10093 5.021746,-0.31487 3.808553,-0.43419 10.254241,-1.11249 19.071901,-2.06503 3.21314,-0.33595 9.78338,-1.03089 14.59707,-1.55605 4.81381,-0.52515 9.67881,-1.02054 10.78281,-1.14305 11.67536,-1.1749 21.84103,-7.93395 26.43129,-17.56967 3.66758,-7.679074 4.27301,-17.054199 1.65891,-25.100143 -3.7281,-11.403183 -11.38109,-18.413098 -22.42332,-20.485728 -3.82895,-0.735793 -8.1171,-0.563387 -12.42107,0.4907 -4.46759,1.083402 -4.2761,0.999057 -22.25418,11.826623 -10.04395,6.028172 -19.252477,11.581473 -25.060448,15.054715 -2.283817,1.376669 -4.743976,2.971286 -5.471515,3.527015 -5.6626,4.395611 -8.738812,10.708878 -8.517099,17.466218 0.06405,2.42488 1.06588,6.62592 2.065361,8.70541 z m 2.996728,-7.46421 c -0.489255,-5.14948 2.011704,-10.58661 6.082826,-13.273542 1.509707,-0.9906 4.136265,-1.900168 5.93197,-2.082403 4.283407,-0.424641 9.132526,2.153262 11.713095,6.241325 0.94113,1.47524 2.00295,5.03425 2.07941,6.87847 0.052,1.59825 -0.35406,4.2658 -0.92079,5.87734 -0.5668,1.61164 -1.98531,3.79577 -3.311421,5.14282 -1.61502,1.62406 -3.159641,2.48739 -5.734256,3.19576 -1.858277,0.5023 -2.465359,0.55813 -3.958323,0.43595 -6.249111,-0.56121 -11.246228,-5.79102 -11.882797,-12.41578 z"
     id="path156"
     inkscape:connector-curvature="0"
     style="fill:url(#linearGradient13502);stroke-width:5.71435308" /><ellipse
     transform="matrix(-0.26447202,-0.96439336,0.95243592,-0.30473895,0,0)"
     cx="-121.88447"
     cy="112.09251"
     rx="20.279366"
     ry="19.103985"
     id="ellipse158"
     style="fill:#f7a1c0;stroke-width:5.71435547" /><ellipse
     transform="matrix(-0.26447202,-0.96439336,0.95243592,-0.30473895,0,0)"
     cx="-121.89017"
     cy="111.72678"
     rx="18.082167"
     ry="17.034273"
     id="ellipse160"
     style="fill:url(#v);stroke:url(#u);stroke-width:0.52038354;stroke-linecap:square" /><ellipse
     style="fill:none;stroke:url(#t);stroke-width:3.19247866;stroke-linecap:square"
     id="ellipse164"
     ry="13.146044"
     rx="13.955391"
     cy="60.289974"
     cx="-122.22504"
     transform="matrix(-0.26446846,-0.96439434,0.95243507,-0.30474158,0,0)" /><ellipse
     style="fill:none;stroke:url(#s);stroke-width:0.91633672;stroke-linecap:square"
     id="ellipse166"
     ry="14.250049"
     rx="15.128062"
     cy="60.343307"
     cx="-122.20503"
     transform="matrix(-0.26446846,-0.96439434,0.95243507,-0.30474158,0,0)" /><path
     d="m 74.459483,89.223923 c -3.638809,6.623047 -3.652758,14.288517 -0.01112,21.046797 0.426548,0.8211 1.736453,2.81124 2.908238,4.43312 2.359155,3.25865 6.30749,8.80386 11.727774,16.37593 1.966466,2.76525 5.993662,8.41534 8.956962,12.54669 2.963303,4.13133 5.930083,8.32504 6.611533,9.27161 7.1095,10.07236 17.80301,15.80236 27.80069,14.90128 7.97251,-0.70957 15.65403,-5.12339 20.58564,-11.78136 6.97735,-9.45785 8.42551,-20.18279 4.20161,-31.39584 -1.45134,-3.89733 -3.85919,-7.73413 -6.96749,-11.11801 -3.21812,-3.51837 -3.05025,-3.38747 -21.0783,-14.1186 -10.05528,-6.00611 -19.29513,-11.498447 -25.09977,-14.978223 -2.29109,-1.362508 -4.84659,-2.770962 -5.668482,-3.142915 -6.451703,-2.857716 -13.038701,-2.330383 -18.226683,1.454021 -1.869906,1.343627 -4.637315,4.487484 -5.740415,6.505194 z m 7.448359,-1.210466 c 3.783675,-3.176945 9.377745,-3.767264 13.644482,-1.461831 1.577756,0.858022 3.68374,2.781976 4.778436,4.330184 2.60324,3.69865 3.149,9.50676 1.30683,14.03683 -0.65953,1.64382 -2.891187,4.50262 -4.298523,5.54989 -1.227273,0.89455 -3.536747,1.93623 -5.102393,2.27101 -1.565671,0.33488 -4.032181,0.19282 -5.792492,-0.30805 -2.13094,-0.61878 -3.627281,-1.5762 -5.547613,-3.55902 -1.379109,-1.43606 -1.744659,-1.9626 -2.439909,-3.39489 -2.870999,-6.02189 -1.413008,-13.37078 3.451086,-17.464095 z"
     id="path168"
     style="fill:url(#r);stroke-width:0.43346176"
     inkscape:connector-curvature="0" /><path
     d="m 74.495499,89.859843 c -3.638809,6.623047 -3.652758,14.288517 -0.01112,21.046797 0.426548,0.8211 1.736453,2.81124 2.908238,4.43311 2.359155,3.25865 6.30749,8.80387 11.727774,16.37594 1.966467,2.76525 5.993662,8.41535 8.956964,12.54668 2.963305,4.13134 5.930075,8.32505 6.611535,9.27162 7.10949,10.07236 17.80301,15.80237 27.80069,14.90127 7.97251,-0.70956 15.65402,-5.12338 20.58563,-11.78135 6.97736,-9.45784 8.42552,-20.18279 4.20161,-31.39585 -1.45134,-3.89732 -3.85919,-7.73411 -6.96749,-11.118 -3.21812,-3.51837 -3.05024,-3.38747 -21.0783,-14.11859 C 119.17575,94.01535 109.9359,88.523014 104.13126,85.043237 101.84018,83.68073 99.284669,82.272276 98.462786,81.900323 92.011081,79.042606 85.424083,79.56994 80.236101,83.354344 c -1.869906,1.343627 -4.637315,4.487485 -5.740415,6.505193 z m 7.448358,-1.210465 c 3.783676,-3.176944 9.377746,-3.767265 13.644483,-1.461832 1.577756,0.858024 3.683742,2.781978 4.77843,4.330184 2.60324,3.69865 3.14901,9.50677 1.30683,14.03682 -0.65953,1.64383 -2.891179,4.50263 -4.298517,5.5499 -1.227273,0.89453 -3.536747,1.93623 -5.102393,2.27101 -1.565671,0.33488 -4.032181,0.19283 -5.792492,-0.30805 -2.13094,-0.61879 -3.627281,-1.5762 -5.547613,-3.55902 -1.379109,-1.43606 -1.744659,-1.9626 -2.439909,-3.39489 -2.870999,-6.02189 -1.413008,-13.37077 3.451085,-17.464094 z"
     id="path170"
     inkscape:connector-curvature="0"
     style="fill:url(#linearGradient13502);stroke-width:0.43346176" /><ellipse
     cx="-9.5371494"
     cy="185.96219"
     rx="19.7474"
     ry="19.658968"
     id="ellipse172"
     style="fill:#323232;stroke-width:0.43409622"
     transform="matrix(0.63365331,-0.77361714,0.72296058,0.69088928,0,0)" /><ellipse
     style="fill:url(#q);stroke:url(#p);stroke-width:0.52091551;stroke-linecap:square"
     id="ellipse174"
     ry="17.528885"
     rx="17.607714"
     cy="185.8801"
     cx="-9.3234425"
     transform="matrix(0.63365331,-0.77361714,0.72296058,0.69088928,0,0)" /><ellipse
     style="fill:none;stroke:url(#o);stroke-width:3.19572949;stroke-linecap:square"
     id="ellipse176"
     ry="13.527962"
     rx="13.588714"
     cy="132.65614"
     cx="-9.8729744"
     transform="matrix(0.63365331,-0.77361714,0.72296058,0.69088928,0,0)" /><ellipse
     style="fill:none;stroke:url(#n);stroke-width:0.91728872;stroke-linecap:square"
     id="ellipse178"
     ry="14.664726"
     rx="14.730519"
     cy="132.71101"
     cx="-9.8511715"
     transform="matrix(0.63365331,-0.77361714,0.72296058,0.69088928,0,0)" /></svg>