<?xml version="1.0" encoding="UTF-8"?>
<svg width="78" height="92" enable-background="new 0 0 32 32" version="1.1" viewBox="0 0 78 92" xml:space="preserve" xmlns="http://www.w3.org/2000/svg" xmlns:cc="http://creativecommons.org/ns#" xmlns:dc="http://purl.org/dc/elements/1.1/" xmlns:rdf="http://www.w3.org/1999/02/22-rdf-syntax-ns#"><metadata><rdf:RDF><cc:Work rdf:about=""><dc:format>image/svg+xml</dc:format><dc:type rdf:resource="http://purl.org/dc/dcmitype/StillImage"/><dc:title/></cc:Work></rdf:RDF></metadata><g transform="matrix(.91822 0 0 .9476 1.658 1.8217)" stroke-width="3.6114"><path d="m81.274 37.655c0-20.29-17.46-36.735-38.998-36.735-21.542 0-39.002 16.445-39.002 36.735 0 3.6311.56934 7.136 1.6113 10.455 5.552 21.152 37.565 44.81 37.565 44.81s36.166-26.711 38.295-48.753l-.09304-.01754c.4019-2.1064.62145-4.276.62145-6.4946z" fill="none" stroke="#d8d8d8"/><path d="m78 36.735c0-20.29-17.46-36.735-38.998-36.735-21.542 0-39.002 16.445-39.002 36.735 0 3.6311.56934 7.136 1.6113 10.455 5.552 21.152 37.565 44.81 37.565 44.81s36.166-26.711 38.295-48.753l-.09304-.01754c.4019-2.1064.62145-4.276.62145-6.4946z" fill="#ed7642" stroke="#d86c3d"/></g></svg>
