<?xml version="1.0" encoding="UTF-8"?>
<svg width="264" height="264" version="1.1" viewBox="0 0 264 264" xmlns="http://www.w3.org/2000/svg" xmlns:cc="http://creativecommons.org/ns#" xmlns:dc="http://purl.org/dc/elements/1.1/" xmlns:rdf="http://www.w3.org/1999/02/22-rdf-syntax-ns#">
 <metadata>
  <rdf:RDF>
   <cc:Work rdf:about="">
    <dc:format>image/svg+xml</dc:format>
    <dc:type rdf:resource="http://purl.org/dc/dcmitype/StillImage"/>
    <dc:title/>
   </cc:Work>
  </rdf:RDF>
 </metadata>
 <path d="m0 216h48v48h-48z" fill="none"/>
 <path d="m161.37 132.13 30.624 30.624c3.696-9.57 5.808-19.932 5.808-30.756 0-10.758-2.046-21.054-5.676-30.558zm69.828-69.894-16.698 16.698c8.25 15.906 13.002 33.924 13.002 53.13s-4.752 37.158-13.002 53.13l15.84 15.84c12.738-20.46 20.262-44.418 20.262-70.158 0-25.212-7.194-48.642-19.404-68.64zm-50.49 13.068-75.306-75.306h-13.2v100.12l-60.522-60.522-18.678 18.678 73.722 73.722-73.722 73.722 18.678 18.678 60.522-60.522v100.12h13.2l75.306-75.306-56.628-56.694zm-62.106-24.75 24.816 24.816-24.816 24.75zm24.816 138.14-24.816 24.75v-49.632z" stroke-width="6.6"/>
</svg>
