<?xml version="1.0" encoding="UTF-8"?>
<svg enable-background="new 0 0 512 512" version="1.1" viewBox="0 0 512 512" xml:space="preserve" xmlns="http://www.w3.org/2000/svg" xmlns:cc="http://creativecommons.org/ns#" xmlns:dc="http://purl.org/dc/elements/1.1/" xmlns:rdf="http://www.w3.org/1999/02/22-rdf-syntax-ns#"><metadata><rdf:RDF><cc:Work rdf:about=""><dc:format>image/svg+xml</dc:format><dc:type rdf:resource="http://purl.org/dc/dcmitype/StillImage"/><dc:title/></cc:Work></rdf:RDF></metadata><linearGradient id="SVGID_1_" x1="3.8e-6" x2="512" y1="256" y2="256" gradientUnits="userSpaceOnUse"><stop stop-color="#33B49D" offset="0"/><stop stop-color="#00A185" offset="1"/></linearGradient><circle cx="256" cy="256" r="256" fill="url(#SVGID_1_)"/><linearGradient id="SVGID_2_" x1="42.667" x2="469.33" y1="256" y2="256" gradientUnits="userSpaceOnUse"><stop stop-color="#00A185" offset="0"/><stop stop-color="#33B49D" offset="1"/></linearGradient><path d="m256 469.33c-117.63 0-213.33-95.702-213.33-213.33 0-117.63 95.702-213.33 213.33-213.33 117.64 0 213.33 95.702 213.33 213.33 0 117.63-95.697 213.33-213.33 213.33z" fill="url(#SVGID_2_)"/><path d="m172.73 144v9.7957c111.09 0 201.46 90.379 201.46 201.47h9.7957c0-116.49-94.772-211.26-211.26-211.26z" opacity=".3"/><path d="m172.73 188.41v9.7957c86.603 0 157.06 70.457 157.06 157.06h9.7957c0-92.005-74.851-166.85-166.85-166.85z" opacity=".3"/><path d="m172.73 232.82v9.7952c62.116 0 112.65 50.537 112.65 112.65h9.7957c0-67.516-54.93-122.45-122.45-122.45z" opacity=".3"/><path d="m172.73 277.23v9.7957c37.63 0 68.243 30.615 68.243 68.243h9.7957c0-43.032-35.009-78.038-78.039-78.038z" opacity=".3"/><path d="m172.73 326.53c-15.838 0-28.727 12.89-28.727 28.733 0 15.837 12.889 28.728 28.727 28.728 15.844 0 28.733-12.891 28.733-28.728 0-15.843-12.889-28.733-28.733-28.733z" opacity=".3"/><g fill="#fff"><path d="m164.73 136v9.7957c111.09 0 201.46 90.379 201.46 201.47h9.7957c0-116.49-94.772-211.26-211.26-211.26z"/><path d="m164.73 180.41v9.7957c86.603 0 157.06 70.457 157.06 157.06h9.7957c0-92.005-74.851-166.85-166.85-166.85z"/><path d="m164.73 224.82v9.7952c62.116 0 112.65 50.537 112.65 112.65h9.7957c0-67.516-54.93-122.45-122.45-122.45z"/><path d="m164.73 269.23v9.7957c37.63 0 68.243 30.615 68.243 68.243h9.7957c0-43.032-35.009-78.038-78.039-78.038z"/><path d="m164.73 318.53c-15.838 0-28.727 12.89-28.727 28.733 0 15.837 12.889 28.728 28.727 28.728 15.844 0 28.733-12.891 28.733-28.728 0-15.843-12.889-28.733-28.733-28.733z"/></g></svg>
