<?xml version="1.0" encoding="UTF-8" standalone="no"?>
<svg
   xmlns:dc="http://purl.org/dc/elements/1.1/"
   xmlns:cc="http://creativecommons.org/ns#"
   xmlns:rdf="http://www.w3.org/1999/02/22-rdf-syntax-ns#"
   xmlns:svg="http://www.w3.org/2000/svg"
   xmlns="http://www.w3.org/2000/svg"
   xmlns:xlink="http://www.w3.org/1999/xlink"
   xmlns:sodipodi="http://sodipodi.sourceforge.net/DTD/sodipodi-0.dtd"
   xmlns:inkscape="http://www.inkscape.org/namespaces/inkscape"
   height="684"
   width="400"
   xml:space="preserve"
   viewBox="0 0 400 684"
   version="1.1"
   id="Layer_1"
   enable-background="new 0 0 512 512"
   sodipodi:docname="itag_black.svg"
   inkscape:version="0.92.2 5c3e80d, 2017-08-06"><metadata
     id="metadata14659"><rdf:RDF><cc:Work
         rdf:about=""><dc:format>image/svg+xml</dc:format><dc:type
           rdf:resource="http://purl.org/dc/dcmitype/StillImage" /><dc:title></dc:title></cc:Work></rdf:RDF></metadata><sodipodi:namedview
     pagecolor="#ffffff"
     bordercolor="#666666"
     borderopacity="1"
     objecttolerance="10"
     gridtolerance="10"
     guidetolerance="10"
     inkscape:pageopacity="0"
     inkscape:pageshadow="2"
     inkscape:window-width="1180"
     inkscape:window-height="831"
     id="namedview12953"
     showgrid="false"
     inkscape:zoom="1.384873"
     inkscape:cx="111.43855"
     inkscape:cy="66.318228"
     inkscape:window-x="127"
     inkscape:window-y="30"
     inkscape:window-maximized="0"
     inkscape:current-layer="Layer_1" /><defs
     id="defs27"><linearGradient
       gradientTransform="matrix(0.99511082,0,0,1,-134.74592,-135.00001)"
       gradientUnits="userSpaceOnUse"
       y2="375.32202"
       x2="324.71927"
       y1="135.59322"
       x1="186.196"
       id="Button-flat-ring"
       spreadMethod="pad"
       xlink:href="#linearGradientOuterRing"><stop
         id="stop13942"
         offset="0"
         style="stop-color:#000000;stop-opacity:1" /><stop
         id="stop13944"
         offset="1"
         style="stop-color:#515151;stop-opacity:1" /></linearGradient><linearGradient
       y2="215.96609"
       x2="292.8425"
       y1="137.86441"
       x1="215.5304"
       gradientTransform="matrix(0.88051721,0,0,0.88484337,-106.49442,-114.85741)"
       gradientUnits="userSpaceOnUse"
       id="linearGradient7912"
       xlink:href="#ring" /><linearGradient
       inkscape:collect="always"
       id="linearGradientOuterRing"
       gradientTransform="scale(0.99762639,1.0023793)"
       x1="98.659988"
       y1="7.756134"
       x2="140.98404"
       y2="77.632401"
       gradientUnits="userSpaceOnUse"
       spreadMethod="pad"><stop
         offset="0"
         id="stop13948"
         style="stop-color:#cccccc;stop-opacity:1" /><stop
         offset="1"
         id="stop13950"
         style="stop-color:#737373;stop-opacity:1" /></linearGradient><linearGradient
       inkscape:collect="always"
       id="linearGradient1665"
       gradientUnits="userSpaceOnUse"
       x1="97.391678"
       y1="127.02202"
       x2="141.89641"
       y2="199.04314"
       spreadMethod="pad"><stop
         style="stop-color:#282828;stop-opacity:1"
         offset="0"
         id="stop13953" /><stop
         style="stop-color:#141414;stop-opacity:1"
         offset="1"
         id="stop13955" /></linearGradient><linearGradient
       inkscape:collect="always"
       xlink:href="#ring"
       id="linearGradient1667"
       gradientTransform="scale(0.99781018,1.0021946)"
       x1="91.342613"
       y1="7.6369934"
       x2="140.90848"
       y2="73.923607"
       gradientUnits="userSpaceOnUse"><stop
         offset="0"
         id="stop13958"
         style="stop-color:#646464;stop-opacity:1" /><stop
         style="stop-color:#e1e1e1;stop-opacity:1"
         offset="1"
         id="stop13960" /></linearGradient><linearGradient
       inkscape:collect="always"
       xlink:href="#linearGradient1665"
       id="body"
       x1="50.99511"
       y1="119.99998"
       x2="191"
       y2="119.99998"
       gradientUnits="userSpaceOnUse"><stop
         id="stop13963"
         offset="0"
         style="stop-color:#505050;stop-opacity:1" /><stop
         id="stop13965"
         offset="1"
         style="stop-color:#000000;stop-opacity:1" /></linearGradient><linearGradient
       inkscape:collect="always"
       xlink:href="#linearGradient1665"
       id="linearGradient29261"
       gradientUnits="userSpaceOnUse"
       x1="97.391678"
       y1="127.02202"
       x2="141.89641"
       y2="199.04314"
       spreadMethod="pad" /><linearGradient
       inkscape:collect="always"
       xlink:href="#linearGradientOuterRing"
       id="linearGradient29263"
       gradientUnits="userSpaceOnUse"
       gradientTransform="scale(0.99762639,1.0023793)"
       x1="98.659988"
       y1="7.756134"
       x2="140.98404"
       y2="77.632401"
       spreadMethod="pad" /></defs><g
     id="g29259"
     transform="matrix(2.8368795,0,0,2.838174,-141.84398,6e-5)"><path
       inkscape:connector-curvature="0"
       id="pathBodyShadow"
       d="M 109.64354,1.5642816 C 92.851274,4.7714716 80.085234,16.021322 74.635104,32.501362 c -0.6874,1.97366 -1.91491,7.25319 -2.74961,11.74326 -1.66941,9.02948 -4.61542,24.27599 -8.59254,45.14742 -1.473,7.59858 -4.46811,23.141128 -6.62852,34.538998 -2.16041,11.39787 -4.41901,22.89443 -4.91002,25.50952 -5.45012,27.58187 2.01311,55.21307 19.39458,71.84113 13.84625,13.27285 33.388126,20.57538 52.291696,19.63789 26.8087,-1.38156 46.93979,-14.55572 58.87114,-38.63434 4.17351,-8.3387 6.72673,-18.30567 7.41413,-28.86474 0.7365,-10.9538 0.7856,-10.46038 -10.01645,-58.61762 -5.99022,-26.891078 -11.53854,-51.561808 -14.97555,-67.104358 -1.37481,-6.11834 -3.09332,-12.77943 -3.78072,-14.80243 C 155.45401,17.106832 144.11188,6.0543516 129.57822,2.3044016 124.3736,0.92284155 114.74996,0.57745155 109.64354,1.5642816 Z m 13.84625,11.5952404 c 11.29305,2.12168 21.16219,11.29919 24.1082,22.35167 1.0802,4.09534 1.2275,10.70709 0.3928,14.95045 -2.01311,10.115 -10.80205,19.6379 -21.26038,22.99312 -3.78072,1.23354 -12.07865,1.4309 -16.05577,0.44407 -3.43701,-0.88814 -8.83803,-3.50324 -11.882246,-5.82229 -3.04421,-2.31904 -6.72672,-6.95715 -8.69073,-10.85512 -2.35681,-4.73678 -3.14241,-8.83212 -2.89691,-15.19716 0.1964,-4.58876 0.491,-6.01966 1.76761,-9.37488 5.45012,-14.01296 19.983776,-22.20364 34.517426,-19.48986 z"
       style="fill:none;fill-opacity:1;stroke:none;stroke-width:0.04922066" /><path
       inkscape:connector-curvature="0"
       style="opacity:1;fill:url(#body);fill-opacity:1;stroke:none;stroke-width:0.04922066"
       d="M 110.63865,0.56427155 C 93.846384,3.7714616 81.080344,15.021312 75.630214,31.501352 c -0.6874,1.97366 -1.91491,7.25319 -2.74961,11.74326 -1.6694,9.02948 -4.61542,24.27599 -8.59254,45.14742 -1.473,7.59858 -4.46811,23.141128 -6.62852,34.538998 -2.16041,11.39787 -4.41901,22.89443 -4.91002,25.50952 -5.45012,27.58187 2.01311,55.21307 19.39458,71.84113 13.84625,13.27285 33.388126,20.57538 52.291696,19.63789 26.80871,-1.38156 46.93979,-14.55572 58.87114,-38.63434 4.17351,-8.3387 6.72673,-18.30567 7.41413,-28.86474 0.7365,-10.9538 0.7856,-10.46038 -10.01645,-58.61762 -5.99022,-26.891078 -11.53854,-51.561808 -14.97555,-67.104358 -1.37481,-6.11834 -3.09332,-12.77943 -3.78071,-14.80243 C 156.44912,16.106822 145.10699,5.0543416 130.57333,1.3043916 125.36871,-0.07716845 115.74507,-0.42255845 110.63865,0.56427155 Z M 124.4849,12.159512 c 11.29305,2.12168 21.16219,11.29919 24.1082,22.35167 1.08021,4.09534 1.2275,10.70709 0.3928,14.95045 -2.01311,10.115 -10.80204,19.6379 -21.26038,22.99312 -3.78072,1.23354 -12.07865,1.4309 -16.05577,0.44407 -3.43701,-0.88814 -8.83803,-3.50324 -11.882246,-5.82229 -3.04421,-2.31904 -6.72672,-6.95715 -8.69073,-10.85512 -2.35681,-4.73678 -3.14241,-8.83212 -2.89691,-15.19716 0.1964,-4.58876 0.491,-6.01966 1.76761,-9.37488 5.45012,-14.01296 19.983776,-22.2036404 34.517426,-19.48986 z"
       id="pathBody" /><ellipse
       style="opacity:1;fill:#323232;fill-opacity:1;stroke:none;stroke-width:3.19874835;stroke-linecap:square;stroke-miterlimit:4;stroke-dasharray:none;stroke-opacity:1"
       id="pathButtonSocket"
       cx="118.80594"
       cy="166.02498"
       rx="45.277542"
       ry="45.5" /><ellipse
       style="opacity:1;fill:url(#Button-flat-ring);fill-opacity:1;stroke:url(#linearGradient29261);stroke-width:1.20000005;stroke-linecap:square;stroke-miterlimit:4;stroke-dasharray:none;stroke-opacity:1"
       id="circleButtonBorder"
       cx="119.30115"
       cy="165.8271"
       rx="40.372051"
       ry="40.570408" /><ellipse
       cy="42.644722"
       cx="118.03751"
       id="circleHoleWhiteRing"
       style="opacity:1;fill:none;fill-opacity:1;stroke:url(#linearGradient1667);stroke-width:7.36184645;stroke-linecap:square;stroke-miterlimit:4;stroke-dasharray:none;stroke-opacity:1"
       rx="31.156965"
       ry="31.310045" /><ellipse
       style="opacity:1;fill:none;fill-opacity:1;stroke:url(#linearGradient29263);stroke-width:2.11312413;stroke-linecap:square;stroke-miterlimit:4;stroke-dasharray:none;stroke-opacity:1"
       id="pathHoleBlackRing"
       cx="118.09343"
       cy="42.771996"
       rx="33.774902"
       ry="33.940845" /></g></svg>