<?xml version="1.0" encoding="UTF-8" standalone="no"?>
<svg
   xmlns:dc="http://purl.org/dc/elements/1.1/"
   xmlns:cc="http://creativecommons.org/ns#"
   xmlns:rdf="http://www.w3.org/1999/02/22-rdf-syntax-ns#"
   xmlns:svg="http://www.w3.org/2000/svg"
   xmlns="http://www.w3.org/2000/svg"
   xmlns:sodipodi="http://sodipodi.sourceforge.net/DTD/sodipodi-0.dtd"
   xmlns:inkscape="http://www.inkscape.org/namespaces/inkscape"
   inkscape:version="1.0rc1 (09960d6, 2020-04-09)"
   sodipodi:docname="iTag_Logo.svg"
   id="svg1389"
   version="1.1"
   height="341"
   width="600">
  <metadata
     id="metadata1395">
    <rdf:RDF>
      <cc:Work
         rdf:about="">
        <dc:format>image/svg+xml</dc:format>
        <dc:type
           rdf:resource="http://purl.org/dc/dcmitype/StillImage" />
        <dc:title></dc:title>
      </cc:Work>
    </rdf:RDF>
  </metadata>
  <defs
     id="defs1393" />
  <sodipodi:namedview
     inkscape:current-layer="svg1389"
     inkscape:window-maximized="0"
     inkscape:window-y="128"
     inkscape:window-x="219"
     inkscape:cy="168.81461"
     inkscape:cx="283.14607"
     inkscape:zoom="1.1866667"
     showgrid="false"
     id="namedview1391"
     inkscape:window-height="841"
     inkscape:window-width="1511"
     inkscape:pageshadow="2"
     inkscape:pageopacity="0"
     guidetolerance="10"
     gridtolerance="10"
     objecttolerance="10"
     borderopacity="1"
     bordercolor="#666666"
     pagecolor="#ffffff" />
  <path
     id="path833"
     d="M0 0L0 341L600 341L600 0L0 0z"
     style="fill:#fdfefe; stroke:none;" />
  <path
     id="path835"
     d="M47 20L47 21L60 21L47 20M40 21L40 23L42 23L42 21L40 21z"
     style="fill:#bdd1a3; stroke:none;" />
  <path
     id="path837"
     d="M36 25L36 26L46 22L36 25z"
     style="fill:#90a5c3; stroke:none;" />
  <path
     id="path839"
     d="M46 21.8001C28.2339 27.5599 16.3064 44.7949 20.2739 63.8302C23.9435 81.4362 44.1911 95.8234 62 90.0486C80.1699 84.1568 90.1777 66.9815 86.7407 48.1698C83.6046 31.0045 63.4446 16.1446 46 21.8001z"
     style="fill:#4e6da0; stroke:none;" />
  <path
     id="path841"
     d="M61 21L61 22L71 26L61 21z"
     style="fill:#90a5c3; stroke:none;" />
  <path
     id="path843"
     d="M65 21L68 23L65 21M35 26L39 24L35 26M69 23L73 26L69 23M32.3333 26.6667L32.6667 27.3333L32.3333 26.6667z"
     style="fill:#bdd1a3; stroke:none;" />
  <path
     id="path845"
     d="M33 26L33 28L35 28L35 26L33 26M72 26L84 41L85 41C83.4378 35.0685 77.9167 27.8839 72 26z"
     style="fill:#90a5c3; stroke:none;" />
  <path
     id="path847"
     d="M30 28L29 31L30 31L30 28z"
     style="fill:#bdd1a3; stroke:none;" />
  <path
     id="path849"
     d="M31.6667 28.3333L32.3333 28.6667L31.6667 28.3333z"
     style="fill:#90a5c3; stroke:none;" />
  <path
     id="path851"
     d="M76 28L78 30L78 28L76 28z"
     style="fill:#bdd1a3; stroke:none;" />
  <path
     id="path853"
     d="M30.3333 29.6667L30.6667 30.3333L30.3333 29.6667z"
     style="fill:#90a5c3; stroke:none;" />
  <path
     id="path855"
     d="M78 30L79 31L78 30M27 31L28 32L27 31z"
     style="fill:#bdd1a3; stroke:none;" />
  <path
     id="path857"
     d="M28 31L20 47L21 47L28 31z"
     style="fill:#90a5c3; stroke:none;" />
  <path
     id="path859"
     d="M80 32L80 34L82 34L80 32M25.6667 33.3333L26.3333 33.6667L25.6667 33.3333M82.3333 34.6667L82.6667 35.3333L82.3333 34.6667M24 35L25 36L24 35M23 36L22 40L23 40L23 36M83 36L83 38L85 38L85 36L83 36z"
     style="fill:#bdd1a3; stroke:none;" />
  <path
     id="path861"
     d="M52 41L53 41L54 39L55 39L63 47L60 51C69.4379 54.146 54.5276 29.2044 52 41z"
     style="fill:#90a5c3; stroke:none;" />
  <path
     id="path863"
     d="M53 39C53 43.8886 53.6859 48.3905 50 52C51.4866 56.2573 50.3007 58.278 48 62L53 61L53 73L57 71C55.5257 66.8053 53.4357 63.5905 58 61L58 52C52.9655 49.1939 55.4056 45.5015 57 41L53 39z"
     style="fill:#fdfefe; stroke:none;" />
  <path
     id="path865"
     d="M54 39L55 40L54 39M20 41L20 43L22 43L22 41L20 41M52 41L52 44L53 44L52 41M57 41C54.9116 45.1557 52.2567 50.0923 58 52C54.518 57.356 58.0418 62.1776 59 68L58 68L55 67L57 71L58 71L62 63L62 62L62 61C57.3556 57.5516 57.3557 54.4484 62 51L62 50L62 49L57 41M85 41L87 46L88 46L85 41z"
     style="fill:#bdd1a3; stroke:none;" />
  <path
     id="path867"
     d="M85 42L87 46L85 42z"
     style="fill:#90a5c3; stroke:none;" />
  <path
     id="path869"
     d="M108 104C104.814 90.6169 107 74.7292 107 61C107 56.8152 105.531 48.8835 108.742 45.6034C111.423 42.865 117.537 44 121 44L153 44L243 44C258.044 44 275.576 41.4991 290 46C287.518 42.171 283.206 43.0003 279 43L249 43L147 43C137.279 43 116.552 39.052 108.148 44.0278C103.904 46.5406 105 52.8427 105 57L105 91C105 95.6869 103.855 101.011 108 104z"
     style="fill:#bdd1a3; stroke:none;" />
  <path
     id="path871"
     d="M52 44L53 45L52 44z"
     style="fill:#90a5c3; stroke:none;" />
  <path
     id="path873"
     d="M58.3333 44.6667L58.6667 45.3333L58.3333 44.6667z"
     style="fill:#fdfefe; stroke:none;" />
  <path
     id="path875"
     d="M137 104L137 103L108 103L108 46L241 46L274 46L286.397 47.6034L288 62L288 103L290 103L290 61C290 56.9997 291.531 48.962 288.397 45.8935C285.644 43.1987 280.493 44.0002 277 44L248 44L145 44L119 44C116.135 44 111.14 43.0877 108.742 45.0278C105.861 47.359 107 53.7569 107 57L107 90C107 93.3155 105.649 100.632 108.603 102.972C113.725 107.029 130.551 104 137 104z"
     style="fill:#90a5c3; stroke:none;" />
  <path
     id="path877"
     d="M52 45L53 46L52 45M19 46L19 67L20 67L19 46z"
     style="fill:#bdd1a3; stroke:none;" />
  <path
     id="path879"
     d="M44 46L44 50L45 50L45 47L52 51L53 46L44 46M55 46L55 51L59 47L55 46z"
     style="fill:#90a5c3; stroke:none;" />
  <path
     id="path881"
     d="M60 46L62 49L60 46z"
     style="fill:#fdfefe; stroke:none;" />
  <path
     id="path883"
     d="M61 46L62 47L61 46z"
     style="fill:#bdd1a3; stroke:none;" />
  <path
     id="path885"
     d="M87 46L85 70L86 70C88.9193 63.0817 89.984 53.0456 87 46z"
     style="fill:#90a5c3; stroke:none;" />
  <path
     id="path887"
     d="M108 46L108 103L138 103L140 76L177 76L177 172C177 183.244 180.523 201.787 174.861 211.811C171.251 218.203 161.275 217 155 217L155 241L240 241L240 217L220 214L220 76L255 76L258 103L288 103L288 63L286.972 47.6034L275 46L243 46L108 46z"
     style="fill:#4e6da0; stroke:none;" />
  <path
     id="path889"
     d="M45 47L45 51C53.526 54.9272 45.9245 59.9539 45 66L50 61L48 62L52 52L45 47z"
     style="fill:#bdd1a3; stroke:none;" />
  <path
     id="path891"
     d="M56 47L57 48L56 47z"
     style="fill:#4e6da0; stroke:none;" />
  <path
     id="path893"
     d="M62 47L63 48L62 47M52 48L52 51L53 51L52 48M88 49L88 63L89 63C90.1252 58.2739 90.8488 53.17 88 49z"
     style="fill:#bdd1a3; stroke:none;" />
  <path
     id="path895"
     d="M48 50L49 51L48 50z"
     style="fill:#fdfefe; stroke:none;" />
  <path
     id="path897"
     d="M19 51L19 61L20 61L19 51M46 51L47 61L48 61C50.1443 56.8747 50.5084 53.3636 46 51M58.6667 53.3333L59.3333 53.6667L58.6667 53.3333M57 54L57 58L58 58L57 54M58.6667 58.3333L59.3333 58.6667L58.6667 58.3333M60 60L61 61L60 60M45 61L46 62L45 61M50 61L48 63L48 64L52 64L52 68L53 68L52 61L50 61z"
     style="fill:#90a5c3; stroke:none;" />
  <path
     id="path899"
     d="M52 61L52 64L53 64L52 61z"
     style="fill:#bdd1a3; stroke:none;" />
  <path
     id="path901"
     d="M55 61L55 67L59 66L57 61L55 61M62 61L63 65L58 71C61.8284 68.7388 64.2184 65.2542 62 61M44 62L44 66L45 66L44 62z"
     style="fill:#90a5c3; stroke:none;" />
  <path
     id="path903"
     d="M54 62L54 66L55 66L54 62z"
     style="fill:#bdd1a3; stroke:none;" />
  <path
     id="path905"
     d="M56 63L56 66L57 66L56 63z"
     style="fill:#4e6da0; stroke:none;" />
  <path
     id="path907"
     d="M60 63L60 66L62 66L62 63L60 63z"
     style="fill:#fdfefe; stroke:none;" />
  <path
     id="path909"
     d="M47.3333 64.6667L47.6667 65.3333L47.3333 64.6667z"
     style="fill:#90a5c3; stroke:none;" />
  <path
     id="path911"
     d="M62 64L63 65L62 64z"
     style="fill:#bdd1a3; stroke:none;" />
  <path
     id="path913"
     d="M20 66L28 81L29 81L20 66z"
     style="fill:#90a5c3; stroke:none;" />
  <path
     id="path915"
     d="M58.3333 66.6667L58.6667 67.3333L58.3333 66.6667z"
     style="fill:#fdfefe; stroke:none;" />
  <path
     id="path917"
     d="M87 66L87 69L88 69L87 66M52 68L52 71L53 71L52 68M20 69L20 71L22 71L22 69L20 69M86 69L85 72L86 69z"
     style="fill:#bdd1a3; stroke:none;" />
  <path
     id="path919"
     d="M52 71C52.9059 75.2274 55.9297 73.6873 58 71L52 71z"
     style="fill:#90a5c3; stroke:none;" />
  <path
     id="path921"
     d="M55 71L56 72L55 71z"
     style="fill:#bdd1a3; stroke:none;" />
  <path
     id="path923"
     d="M84 71C78.4543 80.5695 71.2474 86.151 61 90L61 91C68.3207 90.0254 86.4786 80.4044 84 71z"
     style="fill:#90a5c3; stroke:none;" />
  <path
     id="path925"
     d="M22 72L23 76L24 76L22 72M54 72L55 73L54 72M83 74L83 76L85 76L85 74L83 74z"
     style="fill:#bdd1a3; stroke:none;" />
  <path
     id="path927"
     d="M147 75L147 76L165 76L147 75M232 75L232 76L249 76L232 75z"
     style="fill:#90a5c3; stroke:none;" />
  <path
     id="path929"
     d="M24 76L25 77L24 76M82.3333 76.6667L82.6667 77.3333L82.3333 76.6667z"
     style="fill:#bdd1a3; stroke:none;" />
  <path
     id="path931"
     d="M140 78L143 76L140 78z"
     style="fill:#90a5c3; stroke:none;" />
  <path
     id="path933"
     d="M143 76L143 77L175 77L143 76z"
     style="fill:#bdd1a3; stroke:none;" />
  <path
     id="path935"
     d="M175 76L175 211L176 211L177 165L177 76L175 76z"
     style="fill:#90a5c3; stroke:none;" />
  <path
     id="path937"
     d="M220 76L220 77L255 79C250.23 72.2491 227.836 76 220 76z"
     style="fill:#bdd1a3; stroke:none;" />
  <path
     id="path939"
     d="M253.667 76.3333L254.333 76.6667L253.667 76.3333z"
     style="fill:#90a5c3; stroke:none;" />
  <path
     id="path941"
     d="M142 77L143 78L142 77M25.6667 78.3333L26.3333 78.6667L25.6667 78.3333M80 78L80 80L82 78L80 78M140.667 78.3333L141.333 78.6667L140.667 78.3333z"
     style="fill:#bdd1a3; stroke:none;" />
  <path
     id="path943"
     d="M255 79C255.365 83.4743 254.77 99.3039 257.042 102.258C260.807 107.151 281.132 104 287 104L287 103L258 103C258 95.5934 260.112 84.9264 255 79z"
     style="fill:#90a5c3; stroke:none;" />
  <path
     id="path945"
     d="M27 80L28 81L27 80M28 81L31 84L28 81M78.6667 81.3333L79.3333 81.6667L78.6667 81.3333z"
     style="fill:#bdd1a3; stroke:none;" />
  <path
     id="path947"
     d="M139 81L138 103L140 103L139 81M30 82L31 83L30 82M31 83L31 84L38 88L31 83z"
     style="fill:#90a5c3; stroke:none;" />
  <path
     id="path949"
     d="M76.6667 83.3333L77.3333 83.6667L76.6667 83.3333M255 83C255 87.8796 252.514 102.824 258 104L258 103L255 83M32.3333 84.6667L32.6667 85.3333L32.3333 84.6667M34 86L35 87L34 86M72.6667 86.3333L73.3333 86.6667L72.6667 86.3333M35 87L35 88L39 89L39 88L35 87M69 89L72 87L69 89z"
     style="fill:#bdd1a3; stroke:none;" />
  <path
     id="path951"
     d="M39 88L39 89L46 91L39 88z"
     style="fill:#90a5c3; stroke:none;" />
  <path
     id="path953"
     d="M40 89L40 91L42 91L42 89L40 89M65 91L68 89L65 91M44 91L44 92L63 92L44 91z"
     style="fill:#bdd1a3; stroke:none;" />
  <path
     id="path955"
     d="M52 91L52 92L56 92L52 91z"
     style="fill:#90a5c3; stroke:none;" />
  <path
     id="path957"
     d="M506 97L506 98L515 98L506 97M340 100L340 101L360 99C354.078 96.5149 345.863 97.8633 340 100z"
     style="fill:#bdd1a3; stroke:none;" />
  <path
     id="path959"
     d="M360 98L360 99L365 99L360 98z"
     style="fill:#90a5c3; stroke:none;" />
  <path
     id="path961"
     d="M365 98L365 99L383 101C377.912 96.9537 371.17 98 365 98M488 100L488 101L499 99L488 100z"
     style="fill:#bdd1a3; stroke:none;" />
  <path
     id="path963"
     d="M499 98L499 99L525 99L499 98z"
     style="fill:#90a5c3; stroke:none;" />
  <path
     id="path965"
     d="M525 98L525 99L535 101L525 98z"
     style="fill:#bdd1a3; stroke:none;" />
  <path
     id="path967"
     d="M344 100L344 101L357 100L344 100z"
     style="fill:#90a5c3; stroke:none;" />
  <path
     id="path969"
     d="M305 114L305 148L335 148C335 139.488 334.349 130.52 342.515 125.239C356.178 116.404 383.645 129.61 377.167 147.867C375.084 153.739 361.223 154.52 356.004 155.835C338.815 160.164 318.842 164.022 305.414 176.5C282.111 198.155 292.654 237.518 324 243.381C335.322 245.499 349.833 244.67 360.41 239.896C367.245 236.811 372.829 231.13 380 229C384.664 246.977 405.821 245.524 420 241.728C423.981 240.662 430.531 239.693 433.397 236.487C437.332 232.084 435 219.615 435 214L417 211C417 173.75 429.819 105.731 377 101C371.248 100.485 365.845 98.6712 360 99.0903C348.541 99.9118 335.882 101.888 325.015 105.733C318.4 108.073 311.879 113.064 305 114z"
     style="fill:#4e6da0; stroke:none;" />
  <path
     id="path971"
     d="M368 99L368 100L380 101L368 99M491 100L491 101L498 100L491 100z"
     style="fill:#90a5c3; stroke:none;" />
  <path
     id="path973"
     d="M480 196C454.748 198.726 442.048 234.087 471 242C463.068 254.232 441.676 249.83 440.058 270C438.081 294.634 461.743 301.107 481 304.259C514.367 309.722 568.909 310.19 583.968 272.714C585.391 269.174 585.753 264.758 586.485 261C593.487 225.077 545.616 219 521 219C514.524 219 487.049 220.323 491.843 207.129C495.992 195.708 520.524 199.914 529.83 197.78C537.384 196.048 544.836 194.479 551.536 190.279C573.177 176.71 574.483 150.176 565 129L585 128C585.875 123.285 588.687 108.426 584.397 105.028C581.779 102.954 576.122 104 573 104C563.069 104 552.907 104.626 543 103.946C536.483 103.498 530.488 99.8598 524 99.1289C495.895 95.9627 459.226 104.941 453.035 137C452.001 142.358 450.2 147.481 450.769 153C451.936 164.31 455.643 176.018 464.296 183.829C469.097 188.163 477.11 190.257 480 196z"
     style="fill:#4e6da0; stroke:none;" />
  <path
     id="path975"
     d="M527 99L527 100L532 101L527 99z"
     style="fill:#90a5c3; stroke:none;" />
  <path
     id="path977"
     d="M330 103L335 102L330 103z"
     style="fill:#bdd1a3; stroke:none;" />
  <path
     id="path979"
     d="M329 103L329 104L342 102L329 103M381 101L381 102L395 106C391.85 101.787 385.981 101.055 381 101z"
     style="fill:#90a5c3; stroke:none;" />
  <path
     id="path981"
     d="M388 101L390 103L390 101L388 101M482 103L485 102L482 103z"
     style="fill:#bdd1a3; stroke:none;" />
  <path
     id="path983"
     d="M485 101L485 102L490 102L485 101M533 101L533 102C545.27 104.519 557.443 104 570 104C573.88 104 581.386 102.593 584.397 105.603C588.665 109.872 585.674 122.666 585 128L568 128L568 129L587 129L585.972 103.603L572 102L533 101z"
     style="fill:#90a5c3; stroke:none;" />
  <path
     id="path985"
     d="M538 101L538 102L573 102L585.972 104.318L587 129C588.813 124.68 590.389 105.19 586.397 102.028C583.457 99.6993 576.531 101 573 101L538 101z"
     style="fill:#bdd1a3; stroke:none;" />
  <path
     id="path987"
     d="M477 105L477 106L485 103L477 105z"
     style="fill:#90a5c3; stroke:none;" />
  <path
     id="path989"
     d="M17 129L30 129L30 128L18 128L18 106L77 104L77 190C77 204.79 73.263 218.998 92 219L92 241L19 241L19 219C23.9902 219 30.8179 220.291 34.2971 215.852C38.6841 210.254 37 200.629 37 194C37 175.082 40.3835 152.412 36 134L35 134L35 191C35 196.944 37.2097 208.572 33.821 213.683C30.6006 218.54 22.4985 215.297 18.6034 218.758C15.65 221.383 15.6182 237.354 18.0278 240.397C20.918 244.046 32.7655 242 37 242L93 242C93 236.236 95.4224 223.312 91.821 218.589C87.405 212.797 78.8395 218.418 78.0548 208C76.2442 183.963 78 159.112 78 135C78 127.146 80.8742 112.385 77.3966 105.318C75.5147 101.493 67.471 103 64 103C53.3337 103 42.6661 102.949 32 103.001C28.0788 103.02 21.6253 102.723 18.6034 105.738C14.5221 109.811 17 123.538 17 129M137 103L137 104L140 104L137 103M287 103L287 104L290 104L287 103M322 105L322 106L329 104L322 105M392 103L392 104L395 104L392 103M475 106L480 104L475 106z"
     style="fill:#bdd1a3; stroke:none;" />
  <path
     id="path991"
     d="M18 106L18 128C22.9111 128 30.6715 126.86 34.0764 131.303C38.1249 136.586 37 144.813 37 151L37 195C37 201.36 38.268 209.463 34.2971 214.941C30.6378 219.989 24.5052 219 19 219L19 241L92 241L92 219C73.6255 218.988 77 204.202 77 190L77 104L18 106z"
     style="fill:#80a451; stroke:none;" />
  <path
     id="path993"
     d="M325 106L328 104L325 106z"
     style="fill:#90a5c3; stroke:none;" />
  <path
     id="path995"
     d="M395 104L400 107L400 106L395 104M317 108L320 107L317 108z"
     style="fill:#bdd1a3; stroke:none;" />
  <path
     id="path997"
     d="M320 106L320 107L323 107L320 106M396 106L400 109L396 106z"
     style="fill:#90a5c3; stroke:none;" />
  <path
     id="path999"
     d="M472 106L472 108L474 106L472 106z"
     style="fill:#bdd1a3; stroke:none;" />
  <path
     id="path1001"
     d="M470 109L470 110L476 106L470 109M313 111L320 107L313 111z"
     style="fill:#90a5c3; stroke:none;" />
  <path
     id="path1003"
     d="M313.667 108.333L314.333 108.667L313.667 108.333M400 108L400 109L410 116L400 108M470 108L471 109L470 108M312 109L311 111L313 111L312 109z"
     style="fill:#bdd1a3; stroke:none;" />
  <path
     id="path1005"
     d="M401 109L403 111L403 109L401 109z"
     style="fill:#90a5c3; stroke:none;" />
  <path
     id="path1007"
     d="M460 118L470 109L460 118M307 113L310 112L307 113z"
     style="fill:#bdd1a3; stroke:none;" />
  <path
     id="path1009"
     d="M310.667 111.333L311.333 111.667L310.667 111.333M404 111L405 112L404 111M465 114L469 111L465 114M306 113L306 114L310 112L306 113z"
     style="fill:#90a5c3; stroke:none;" />
  <path
     id="path1011"
     d="M302 149L303 149C303 140.048 299.354 120.508 306 114C301.417 112.971 302.007 118.769 302 122L302 149z"
     style="fill:#bdd1a3; stroke:none;" />
  <path
     id="path1013"
     d="M405.667 113.333L406.333 113.667L405.667 113.333M304 114L303 149L335 149L335 148L305 148L304 114M407.333 114.667L407.667 115.333L407.333 114.667M464 114L463 116L465 116L464 114M408 116L410 118L410 116L408 116M462 116L460 119L462 116z"
     style="fill:#90a5c3; stroke:none;" />
  <path
     id="path1015"
     d="M410 118L412 122L413 122L410 118z"
     style="fill:#bdd1a3; stroke:none;" />
  <path
     id="path1017"
     d="M506 118L506 119L518 119L506 118M410 119L412 122L410 119z"
     style="fill:#90a5c3; stroke:none;" />
  <path
     id="path1019"
     d="M458 119L457 123L458 123L460 119L458 119z"
     style="fill:#bdd1a3; stroke:none;" />
  <path
     id="path1021"
     d="M502 121L505 119L502 121z"
     style="fill:#90a5c3; stroke:none;" />
  <path
     id="path1023"
     d="M504 121L507 119L504 121z"
     style="fill:#bdd1a3; stroke:none;" />
  <path
     id="path1025"
     d="M507.004 119.754C482.72 127.368 486.943 185.675 516 176.981C533.961 171.608 534.25 147.304 529.508 132.286C526.627 123.161 516.338 116.827 507.004 119.754z"
     style="fill:#fdfefe; stroke:none;" />
  <path
     id="path1027"
     d="M517 119L520 121L517 119z"
     style="fill:#bdd1a3; stroke:none;" />
  <path
     id="path1029"
     d="M519 119L522 121L519 119M458 121L458 123L460 121L458 121M499 121L495 127L501 121L499 121z"
     style="fill:#90a5c3; stroke:none;" />
  <path
     id="path1031"
     d="M501.667 121.333L502.333 121.667L501.667 121.333M521 121L525 126L526 126L521 121z"
     style="fill:#bdd1a3; stroke:none;" />
  <path
     id="path1033"
     d="M523 121L523 123L525 123L525 121L523 121M412 122L414 129L415 129L412 122z"
     style="fill:#90a5c3; stroke:none;" />
  <path
     id="path1035"
     d="M500.333 122.667L500.667 123.333L500.333 122.667z"
     style="fill:#bdd1a3; stroke:none;" />
  <path
     id="path1037"
     d="M346 123L346 124L362 124L346 123M457 123L455 128L457 123M525 123L526 124L525 123M342 126L345 124L342 126z"
     style="fill:#90a5c3; stroke:none;" />
  <path
     id="path1039"
     d="M344 126L347 124L344 126M362 124L362 126L365 126L365 124L362 124z"
     style="fill:#bdd1a3; stroke:none;" />
  <path
     id="path1041"
     d="M365 124L375 134C373.086 129.24 369.76 125.915 365 124z"
     style="fill:#90a5c3; stroke:none;" />
  <path
     id="path1043"
     d="M414 124L415 125L414 124M455.333 124.667L455.667 125.333L455.333 124.667z"
     style="fill:#bdd1a3; stroke:none;" />
  <path
     id="path1045"
     d="M526 124L530 129L526 124z"
     style="fill:#90a5c3; stroke:none;" />
  <path
     id="path1047"
     d="M497 125L495 129L497 125M340 126L338 131L343 127L340 126M366 126L370 129L366 126M527.333 127.667L527.667 128.333L527.333 127.667z"
     style="fill:#bdd1a3; stroke:none;" />
  <path
     id="path1049"
     d="M338 128L335 139L336 139L340 128L338 128z"
     style="fill:#90a5c3; stroke:none;" />
  <path
     id="path1051"
     d="M454 128L452 134L453 134L454 128M32 129L34 133L35 133L32 129M370 129L370 131L372 131L370 129z"
     style="fill:#bdd1a3; stroke:none;" />
  <path
     id="path1053"
     d="M454 129L453 134L454 134L454 129M493 129L492 135L493 135L495 129L493 129z"
     style="fill:#90a5c3; stroke:none;" />
  <path
     id="path1055"
     d="M528 129L528 131L530 131L530 129L528 129z"
     style="fill:#bdd1a3; stroke:none;" />
  <path
     id="path1057"
     d="M565 129L569 139L570 139L565 129z"
     style="fill:#90a5c3; stroke:none;" />
  <path
     id="path1059"
     d="M567 129L567 132L568 132L567 129M415 130L417 144L418 144L415 130z"
     style="fill:#bdd1a3; stroke:none;" />
  <path
     id="path1061"
     d="M530 130L530 166L531 166C533.982 156.592 535.997 138.434 530 130z"
     style="fill:#90a5c3; stroke:none;" />
  <path
     id="path1063"
     d="M372 131L372 134L373 134L372 131M493 131L493 134L495 131L493 131M337 132L335 149L337 149L337 132z"
     style="fill:#bdd1a3; stroke:none;" />
  <path
     id="path1065"
     d="M415 133L416 142L417 142L415 133z"
     style="fill:#90a5c3; stroke:none;" />
  <path
     id="path1067"
     d="M373 134L373 136L375 136L375 134L373 134z"
     style="fill:#bdd1a3; stroke:none;" />
  <path
     id="path1069"
     d="M452 134L450 149L451 149L452 134z"
     style="fill:#90a5c3; stroke:none;" />
  <path
     id="path1071"
     d="M530 134L531 141L532 141L530 134M568 134L570 136L570 134L568 134M492 135L492 163L493 163L491.264 149L492 135M450 136L450 139L452 139L452 136L450 136z"
     style="fill:#bdd1a3; stroke:none;" />
  <path
     id="path1073"
     d="M491 136L490 144L491 144L491 136M375 138L375 151C379.395 147.892 377.755 141.867 375 138z"
     style="fill:#90a5c3; stroke:none;" />
  <path
     id="path1075"
     d="M570 138L570 169L571 169C573.423 159.843 575.539 146.393 570 138z"
     style="fill:#bdd1a3; stroke:none;" />
  <path
     id="path1077"
     d="M219 139L219 206L220 206L220 160L219 139M570 141L571 152L572 152L570 141M417 144L417 195C417 199.385 414.851 209.897 420 211C414.5 196.646 418 176.296 418 161C418 155.65 419.085 148.969 417 144z"
     style="fill:#90a5c3; stroke:none;" />
  <path
     id="path1079"
     d="M375.333 146.667L375.667 147.333L375.333 146.667M374 149L372 150L372 151L374 149M360 153L360 154L367 152L360 153z"
     style="fill:#bdd1a3; stroke:none;" />
  <path
     id="path1081"
     d="M364 153L364 154L374 152L364 153M450 151L454 171L455 171L450 151M571 153L570 165L571 165L571 153z"
     style="fill:#90a5c3; stroke:none;" />
  <path
     id="path1083"
     d="M352 155L352 156L356 155L352 155z"
     style="fill:#bdd1a3; stroke:none;" />
  <path
     id="path1085"
     d="M355 155L355 156L360 155L355 155M490 154L491 162L492 162L490 154z"
     style="fill:#90a5c3; stroke:none;" />
  <path
     id="path1087"
     d="M341 158L341 159L348 157L341 158z"
     style="fill:#bdd1a3; stroke:none;" />
  <path
     id="path1089"
     d="M345 158L345 159L353 157L345 158z"
     style="fill:#90a5c3; stroke:none;" />
  <path
     id="path1091"
     d="M531 156L530 161L531 161L531 156M335 161L338 159L335 161z"
     style="fill:#bdd1a3; stroke:none;" />
  <path
     id="path1093"
     d="M337 160L337 161L342 160L337 160z"
     style="fill:#90a5c3; stroke:none;" />
  <path
     id="path1095"
     d="M325 163L325 164L330 161L325 163z"
     style="fill:#bdd1a3; stroke:none;" />
  <path
     id="path1097"
     d="M328 163L328 164L335 162L328 163z"
     style="fill:#90a5c3; stroke:none;" />
  <path
     id="path1099"
     d="M450 161L451 166L452 166L450 161z"
     style="fill:#bdd1a3; stroke:none;" />
  <path
     id="path1101"
     d="M492 163L494 169L495 169L492 163z"
     style="fill:#90a5c3; stroke:none;" />
  <path
     id="path1103"
     d="M320 164L320 166L322 164L320 164z"
     style="fill:#bdd1a3; stroke:none;" />
  <path
     id="path1105"
     d="M321 165L321 166L325 164L321 165z"
     style="fill:#90a5c3; stroke:none;" />
  <path
     id="path1107"
     d="M493 164L493 166L495 166L495 164L493 164M314 169L318 167L314 169z"
     style="fill:#bdd1a3; stroke:none;" />
  <path
     id="path1109"
     d="M315 168L315 169L320 166L315 168z"
     style="fill:#90a5c3; stroke:none;" />
  <path
     id="path1111"
     d="M527 169L530 166L527 169M452 167L454 171L452 167z"
     style="fill:#bdd1a3; stroke:none;" />
  <path
     id="path1113"
     d="M529 167L528 169L530 169L529 167z"
     style="fill:#90a5c3; stroke:none;" />
  <path
     id="path1115"
     d="M495 168L498 174L499 174L495 168z"
     style="fill:#bdd1a3; stroke:none;" />
  <path
     id="path1117"
     d="M569 168L565 176L569 168z"
     style="fill:#90a5c3; stroke:none;" />
  <path
     id="path1119"
     d="M307 174L308 174L313 170L307 174z"
     style="fill:#bdd1a3; stroke:none;" />
  <path
     id="path1121"
     d="M312 171L315 169L312 171M527 169L516 178L516 179C520.838 178.316 528.231 174.771 527 169M310 171L311 172L310 171M373 171L369 173L369 174L375 174L375 199C379.472 192.99 381.198 174.136 373 171z"
     style="fill:#90a5c3; stroke:none;" />
  <path
     id="path1123"
     d="M454 171L455 172L454 171z"
     style="fill:#bdd1a3; stroke:none;" />
  <path
     id="path1125"
     d="M495 171L497 173L497 171L495 171z"
     style="fill:#90a5c3; stroke:none;" />
  <path
     id="path1127"
     d="M525 171L526 172L525 171M568 171L568 174L570 171L568 171z"
     style="fill:#bdd1a3; stroke:none;" />
  <path
     id="path1129"
     d="M308 172L308 174L310 174L310 172L308 172M455 173L460 179L455 173M497 173C499.215 176.928 502.606 178.425 507 179L507 178L497 173z"
     style="fill:#90a5c3; stroke:none;" />
  <path
     id="path1131"
     d="M524 173L525 174L524 173z"
     style="fill:#bdd1a3; stroke:none;" />
  <path
     id="path1133"
     d="M305 176L308 174L305 176M362 175L362 176L367 175L362 175z"
     style="fill:#90a5c3; stroke:none;" />
  <path
     id="path1135"
     d="M366 175L366 176L370 175L366 175z"
     style="fill:#bdd1a3; stroke:none;" />
  <path
     id="path1137"
     d="M375 174C368.354 174.34 362.343 176.885 356.246 179.326C350.78 181.515 345.095 183.497 340.515 187.363C330.651 195.688 332.15 212.586 344.286 217.95C357.64 223.851 372.303 211.841 374.726 199C376.213 191.12 375 182.013 375 174z"
     style="fill:#fdfefe; stroke:none;" />
  <path
     id="path1139"
     d="M500.333 174.667L500.667 175.333L500.333 174.667M522 174L523 175L522 174M567.333 174.667L567.667 175.333L567.333 174.667M455 175L456 176L455 175M521 175L522 176L521 175M302 176L301 179L302 176z"
     style="fill:#bdd1a3; stroke:none;" />
  <path
     id="path1141"
     d="M303 176L300 181L305 176L303 176M354 179L360 177L354 179z"
     style="fill:#90a5c3; stroke:none;" />
  <path
     id="path1143"
     d="M360 176L360 177L363 177L360 176M503 176L503 177C508.654 179.061 513.458 179.667 519 177L503 176M565 176L560 185L567 176L565 176M357 179L360 177L357 179M457.333 177.667L457.667 178.333L457.333 177.667z"
     style="fill:#bdd1a3; stroke:none;" />
  <path
     id="path1145"
     d="M564 178L565 179L564 178M350 181L353 179L350 181z"
     style="fill:#90a5c3; stroke:none;" />
  <path
     id="path1147"
     d="M352 181L355 179L352 181M458 179L462 184L458 179z"
     style="fill:#bdd1a3; stroke:none;" />
  <path
     id="path1149"
     d="M562 179L562 181L564 179L562 179M460 180L461 181L460 180z"
     style="fill:#90a5c3; stroke:none;" />
  <path
     id="path1151"
     d="M298 181L297 185L298 185L300 181L298 181z"
     style="fill:#bdd1a3; stroke:none;" />
  <path
     id="path1153"
     d="M345 181L335 191L347 181L345 181z"
     style="fill:#90a5c3; stroke:none;" />
  <path
     id="path1155"
     d="M345 183L345 184L350 182L345 183M375 181L375 191L376 191L375 181z"
     style="fill:#bdd1a3; stroke:none;" />
  <path
     id="path1157"
     d="M461 181L464 184L461 181M560 181L560 184L562 181L560 181M299 182L298 184L300 184L299 182z"
     style="fill:#90a5c3; stroke:none;" />
  <path
     id="path1159"
     d="M343.667 184.333L344.333 184.667L343.667 184.333M463 184L467 189L468 189L463 184z"
     style="fill:#bdd1a3; stroke:none;" />
  <path
     id="path1161"
     d="M552 191L560 184L552 191M297 185L295 191L296 191L297 185z"
     style="fill:#90a5c3; stroke:none;" />
  <path
     id="path1163"
     d="M342 185L343 186L342 185z"
     style="fill:#bdd1a3; stroke:none;" />
  <path
     id="path1165"
     d="M465 185L466 186L465 185z"
     style="fill:#90a5c3; stroke:none;" />
  <path
     id="path1167"
     d="M295 186L295 188L297 186L295 186M340.667 186.333L341.333 186.667L340.667 186.333z"
     style="fill:#bdd1a3; stroke:none;" />
  <path
     id="path1169"
     d="M467 186L470 189L467 186z"
     style="fill:#90a5c3; stroke:none;" />
  <path
     id="path1171"
     d="M557 186L556 189L557 186M339 188L340 189L339 188M337.333 189.667L337.667 190.333L337.333 189.667M470 189L470 191L472 191L470 189z"
     style="fill:#bdd1a3; stroke:none;" />
  <path
     id="path1173"
     d="M471 189L473 191L473 189L471 189z"
     style="fill:#90a5c3; stroke:none;" />
  <path
     id="path1175"
     d="M554 189L553 191L555 191L554 189M293 191L292 199L293 199L295 191L293 191M335 191L335 193L337 191L335 191M473 191L473 192L475 196L478 195L473 191z"
     style="fill:#bdd1a3; stroke:none;" />
  <path
     id="path1177"
     d="M475 191L475 192L477 196C482.007 194.922 478.247 191.585 475 191M541 195L541 196L550 191L541 195z"
     style="fill:#90a5c3; stroke:none;" />
  <path
     id="path1179"
     d="M550.667 191.333L551.333 191.667L550.667 191.333z"
     style="fill:#bdd1a3; stroke:none;" />
  <path
     id="path1181"
     d="M294 193L293 197L294 197L294 193M334 193C331.45 197.778 329.99 207.461 335 211L334 193z"
     style="fill:#90a5c3; stroke:none;" />
  <path
     id="path1183"
     d="M548.667 193.333L549.333 193.667L548.667 193.333M545 194L546 195L545 194M544 195L545 196L544 195M333 196L333 201L334 201L335 196L333 196M469 199L473 197L469 199z"
     style="fill:#bdd1a3; stroke:none;" />
  <path
     id="path1185"
     d="M470 198L470 199L476 197L470 198M525 198L525 199L537 197L525 198z"
     style="fill:#90a5c3; stroke:none;" />
  <path
     id="path1187"
     d="M534 198L534 199L542 197L534 198z"
     style="fill:#bdd1a3; stroke:none;" />
  <path
     id="path1189"
     d="M292 199L292 213L293 213L292 199z"
     style="fill:#90a5c3; stroke:none;" />
  <path
     id="path1191"
     d="M465 199L465 201L467 201L467 199L465 199z"
     style="fill:#bdd1a3; stroke:none;" />
  <path
     id="path1193"
     d="M467 201L470 200L467 201M505 200L505 201L520 200L505 200z"
     style="fill:#90a5c3; stroke:none;" />
  <path
     id="path1195"
     d="M517 200L517 201L527 200L517 200M374 201L372 206L373 206L374 201M461 204L464 201L461 204z"
     style="fill:#bdd1a3; stroke:none;" />
  <path
     id="path1197"
     d="M463 204L466 201L463 204M495 204L500 202L495 204z"
     style="fill:#90a5c3; stroke:none;" />
  <path
     id="path1199"
     d="M500 201L500 202L506 202L500 201M497 204L500 202L497 204M333 203L334 208L335 208L333 203z"
     style="fill:#bdd1a3; stroke:none;" />
  <path
     id="path1201"
     d="M373 204L373 206L375 206L375 204L373 204M460 206L463 204L460 206M492 204L491 212L492 212L495 204L492 204z"
     style="fill:#90a5c3; stroke:none;" />
  <path
     id="path1203"
     d="M494 205L495 206L494 205z"
     style="fill:#bdd1a3; stroke:none;" />
  <path
     id="path1205"
     d="M372 206L370 211L372 206z"
     style="fill:#90a5c3; stroke:none;" />
  <path
     id="path1207"
     d="M418 206L418 209L420 209L420 206L418 206M457 206L457 209L458 209L457 206z"
     style="fill:#bdd1a3; stroke:none;" />
  <path
     id="path1209"
     d="M458 206L458 209L460 206L458 206z"
     style="fill:#90a5c3; stroke:none;" />
  <path
     id="path1211"
     d="M492 207C492.14 211.357 492.959 213.998 497 216L492 207M370.667 208.333L371.333 208.667L370.667 208.333M455 209L456 210L455 209z"
     style="fill:#bdd1a3; stroke:none;" />
  <path
     id="path1213"
     d="M455 212L458 209L455 212z"
     style="fill:#90a5c3; stroke:none;" />
  <path
     id="path1215"
     d="M173 211L166 215L166 216C170.21 215.717 172.908 214.773 175 211L173 211M220 211L224 214L220 211M335 211L345 219L345 218L335 211M367 214L370 211L367 214M420 211L424 214L424 213L420 211M430 213L430 214L436 214L435 237L437 237L437 211L430 213z"
     style="fill:#bdd1a3; stroke:none;" />
  <path
     id="path1217"
     d="M220 212L220 214L222 214L220 212M335 212L335 214L337 214L335 212M369 212L368 214L370 214L369 212z"
     style="fill:#90a5c3; stroke:none;" />
  <path
     id="path1219"
     d="M454 212C450.915 217.928 451.13 226.037 454 232L455 232L454 212z"
     style="fill:#bdd1a3; stroke:none;" />
  <path
     id="path1221"
     d="M174 213L175 214L174 213z"
     style="fill:#90a5c3; stroke:none;" />
  <path
     id="path1223"
     d="M292 213L295 221L292 213z"
     style="fill:#bdd1a3; stroke:none;" />
  <path
     id="path1225"
     d="M420 213L421 214L420 213M492 213L493 214L492 213M172 214L171 216L173 216L172 214M223 214L225 216L225 214L223 214z"
     style="fill:#90a5c3; stroke:none;" />
  <path
     id="path1227"
     d="M225 214L229 216L229 215L225 214z"
     style="fill:#bdd1a3; stroke:none;" />
  <path
     id="path1229"
     d="M337.333 214.667L337.667 215.333L337.333 214.667M365 216L368 214L365 216M422 214L422 215L430 215L422 214M435 214L435 221L436 221L435 214M454 214L453 219L454 219L454 214M493 214L495 216L495 214L493 214M293 215L295 219L293 215M155 216L155 217L167 217L155 216M228 216L228 217L240 217L228 216z"
     style="fill:#90a5c3; stroke:none;" />
  <path
     id="path1231"
     d="M240 216L240 241L242 241L242 216L240 216z"
     style="fill:#bdd1a3; stroke:none;" />
  <path
     id="path1233"
     d="M339 216L340 217L339 216z"
     style="fill:#90a5c3; stroke:none;" />
  <path
     id="path1235"
     d="M360 216L357 218L357 219L362 216L360 216z"
     style="fill:#bdd1a3; stroke:none;" />
  <path
     id="path1237"
     d="M360 218L360 219L365 217L360 218M497 216L497 217L510 219L497 216z"
     style="fill:#90a5c3; stroke:none;" />
  <path
     id="path1239"
     d="M504 216L504 217L538 219L504 216z"
     style="fill:#bdd1a3; stroke:none;" />
  <path
     id="path1241"
     d="M340 217L340 219L342 219L342 217L340 217M344 219L344 220L351 221L344 219z"
     style="fill:#90a5c3; stroke:none;" />
  <path
     id="path1243"
     d="M350 219L351 221L352 221L353 219L350 219z"
     style="fill:#bdd1a3; stroke:none;" />
  <path
     id="path1245"
     d="M352 220L352 221L358 220L352 220M532 219L532 220L545 221L532 219z"
     style="fill:#90a5c3; stroke:none;" />
  <path
     id="path1247"
     d="M543 219L543 220L550 221L543 219z"
     style="fill:#bdd1a3; stroke:none;" />
  <path
     id="path1249"
     d="M548 221L548 222L560 224L548 221z"
     style="fill:#90a5c3; stroke:none;" />
  <path
     id="path1251"
     d="M556 221L556 222L560 223L556 221z"
     style="fill:#bdd1a3; stroke:none;" />
  <path
     id="path1253"
     d="M295 223L298 227L295 223z"
     style="fill:#90a5c3; stroke:none;" />
  <path
     id="path1255"
     d="M560 223L560 224L564 224L560 223z"
     style="fill:#bdd1a3; stroke:none;" />
  <path
     id="path1257"
     d="M453 224L453 229L455 229L455 224L453 224M563 224L568 227L568 226L563 224z"
     style="fill:#90a5c3; stroke:none;" />
  <path
     id="path1259"
     d="M566 224L566 226L568 226L566 224M295 225L295 227L297 227L295 225M568 226L568 227L574 229L574 228L568 226M297 227C298.49 232.695 302.562 236.863 308 239L308 238L297 227z"
     style="fill:#bdd1a3; stroke:none;" />
  <path
     id="path1261"
     d="M569 227L572 229L569 227M298 228L300 230L300 228L298 228M371 234L380 229L371 234M572 229L572 230L576 232L572 229z"
     style="fill:#90a5c3; stroke:none;" />
  <path
     id="path1263"
     d="M575.333 229.667L575.667 230.333L575.333 229.667z"
     style="fill:#bdd1a3; stroke:none;" />
  <path
     id="path1265"
     d="M300 231L303 234L300 231z"
     style="fill:#90a5c3; stroke:none;" />
  <path
     id="path1267"
     d="M375 231L375 232L380 232L375 231z"
     style="fill:#bdd1a3; stroke:none;" />
  <path
     id="path1269"
     d="M455 231C456.674 237.111 462.874 241.325 469 242L458 248L458 249C463.241 247.613 468.636 247.353 471 242L455 231z"
     style="fill:#90a5c3; stroke:none;" />
  <path
     id="path1271"
     d="M576 231L576 232L585 241L576 231M374 232L373 234L375 234L374 232z"
     style="fill:#bdd1a3; stroke:none;" />
  <path
     id="path1273"
     d="M380 232L385 239L380 232M577.333 232.667L577.667 233.333L577.333 232.667M303 234L305 236L305 234L303 234z"
     style="fill:#90a5c3; stroke:none;" />
  <path
     id="path1275"
     d="M365 238L365 239L373 235L365 238M380 234L382 237L380 234M455 234L457 236L457 234L455 234z"
     style="fill:#bdd1a3; stroke:none;" />
  <path
     id="path1277"
     d="M579 234L580 235L579 234M369 235L370 236L369 235M305 236L305 237L310 239L305 236M365 238L368 236L365 238M434 236L430 238L430 239L434 236z"
     style="fill:#90a5c3; stroke:none;" />
  <path
     id="path1279"
     d="M457 236L458 237L457 236z"
     style="fill:#bdd1a3; stroke:none;" />
  <path
     id="path1281"
     d="M580 236L582 239L580 236z"
     style="fill:#90a5c3; stroke:none;" />
  <path
     id="path1283"
     d="M382 237L382 239L384 239L382 237M459.333 237.667L459.667 238.333L459.333 237.667z"
     style="fill:#bdd1a3; stroke:none;" />
  <path
     id="path1285"
     d="M363.667 238.333L364.333 238.667L363.667 238.333z"
     style="fill:#90a5c3; stroke:none;" />
  <path
     id="path1287"
     d="M434 238L435 239L434 238z"
     style="fill:#bdd1a3; stroke:none;" />
  <path
     id="path1289"
     d="M310 239L310 240L314 241L310 239M360 239L347 243L347 244C351.904 243.885 359.023 243.231 362 239L360 239z"
     style="fill:#90a5c3; stroke:none;" />
  <path
     id="path1291"
     d="M362.333 239.667L362.667 240.333L362.333 239.667z"
     style="fill:#bdd1a3; stroke:none;" />
  <path
     id="path1293"
     d="M385 239L394 244L394 243L385 239M412 243L412 244L429 240L412 243z"
     style="fill:#90a5c3; stroke:none;" />
  <path
     id="path1295"
     d="M429 239L425 241L425 242L429 239M462.333 239.667L462.667 240.333L462.333 239.667z"
     style="fill:#bdd1a3; stroke:none;" />
  <path
     id="path1297"
     d="M582 239L584 244L585 244L582 239z"
     style="fill:#90a5c3; stroke:none;" />
  <path
     id="path1299"
     d="M310 240L318 244L318 243L310 240M155 241L156 242L155 241z"
     style="fill:#bdd1a3; stroke:none;" />
  <path
     id="path1301"
     d="M156 241L156 242L240 242L214 241L156 241M315 241L315 242L325 244L325 243L315 241z"
     style="fill:#90a5c3; stroke:none;" />
  <path
     id="path1303"
     d="M360.667 241.333L361.333 241.667L360.667 241.333M385.667 241.333L386.333 241.667L385.667 241.333M463.667 241.333L464.333 241.667L463.667 241.333M353 243L353 244L357 242L353 243M388 242L388 244L390 244L390 242L388 242M420 244L423 242L420 244M467 242L467 244L469 242L467 242M585 243L587 256L588 256L585 243M325 244C329.844 250.363 343.396 246.362 350 245L325 244z"
     style="fill:#bdd1a3; stroke:none;" />
  <path
     id="path1305"
     d="M328 244L328 245L343 245L328 244z"
     style="fill:#90a5c3; stroke:none;" />
  <path
     id="path1307"
     d="M393 244L393 245C399.927 247.196 406.11 247.58 413 245L393 244z"
     style="fill:#bdd1a3; stroke:none;" />
  <path
     id="path1309"
     d="M397 244L397 245L409 245L397 244z"
     style="fill:#90a5c3; stroke:none;" />
  <path
     id="path1311"
     d="M465 244L465 246L467 246L467 244L465 244M455 248L455 249L462 247L455 248z"
     style="fill:#bdd1a3; stroke:none;" />
  <path
     id="path1313"
     d="M585 246L586 254L587 254L585 246z"
     style="fill:#90a5c3; stroke:none;" />
  <path
     id="path1315"
     d="M452 249L440 263L454 249L452 249z"
     style="fill:#bdd1a3; stroke:none;" />
  <path
     id="path1317"
     d="M452 252L456 249L452 252M450 252L451 253L450 252M449 253L450 254L449 253M501 253L501 254L530 254L501 253M447.333 254.667L447.667 255.333L447.333 254.667M485 279C483.171 275.729 479.626 272.86 479.032 269C477.439 258.634 492.88 255.919 500 255C485.695 249.013 466.329 271.275 485 279z"
     style="fill:#90a5c3; stroke:none;" />
  <path
     id="path1319"
     d="M491 256L491 257L503 255L491 256z"
     style="fill:#bdd1a3; stroke:none;" />
  <path
     id="path1321"
     d="M480 262C480 265.695 479.299 270.237 481.419 273.481C485.268 279.373 493.592 280.717 500 281.039C513.257 281.704 530.333 284.208 542.561 277.518C550.952 272.927 550.365 266.518 547 259C522.535 253.977 503.463 252.375 480 262z"
     style="fill:#fdfefe; stroke:none;" />
  <path
     id="path1323"
     d="M527 254L527 255L540 257L527 254z"
     style="fill:#bdd1a3; stroke:none;" />
  <path
     id="path1325"
     d="M533 254L533 255L539 256L533 254M445.667 256.333L446.333 256.667L445.667 256.333M540 256L540 257L547 259L540 256M587 256L587 259L588 259L587 256z"
     style="fill:#90a5c3; stroke:none;" />
  <path
     id="path1327"
     d="M486 259L489 257L486 259M542 257L545 259L542 257z"
     style="fill:#bdd1a3; stroke:none;" />
  <path
     id="path1329"
     d="M444 258L443 260L445 260L444 258z"
     style="fill:#90a5c3; stroke:none;" />
  <path
     id="path1331"
     d="M483.667 259.333L484.333 259.667L483.667 259.333M547 259L550 263L547 259z"
     style="fill:#bdd1a3; stroke:none;" />
  <path
     id="path1333"
     d="M548 259L550 262L550 259L548 259z"
     style="fill:#90a5c3; stroke:none;" />
  <path
     id="path1335"
     d="M587 259L585 273L586 273L587 259M482 260L481 262L483 262L482 260z"
     style="fill:#bdd1a3; stroke:none;" />
  <path
     id="path1337"
     d="M442 261L440 266L442 261M586 261L585 270L586 270L586 261M550 262L550 272L551 272L550 262z"
     style="fill:#90a5c3; stroke:none;" />
  <path
     id="path1339"
     d="M479 265L479 271L480 271L479 265M439 267L439 279L440 279L439 267M549 271L546 276L549 271z"
     style="fill:#bdd1a3; stroke:none;" />
  <path
     id="path1341"
     d="M584 272L580 281C582.998 278.97 584.874 275.604 584 272z"
     style="fill:#90a5c3; stroke:none;" />
  <path
     id="path1343"
     d="M480 273L481 274L480 273z"
     style="fill:#bdd1a3; stroke:none;" />
  <path
     id="path1345"
     d="M549 273L548 275L550 275L549 273z"
     style="fill:#90a5c3; stroke:none;" />
  <path
     id="path1347"
     d="M481 274L483 276L483 274L481 274z"
     style="fill:#bdd1a3; stroke:none;" />
  <path
     id="path1349"
     d="M547 275L543 279L547 275z"
     style="fill:#90a5c3; stroke:none;" />
  <path
     id="path1351"
     d="M584 275L583 278L584 275M483.667 276.333L484.333 276.667L483.667 276.333M543 276L543 278L545 276L543 276M485 278L485 279L488 279L485 278M541.667 278.333L542.333 278.667L541.667 278.333z"
     style="fill:#bdd1a3; stroke:none;" />
  <path
     id="path1353"
     d="M487 279L487 280L508 284L508 283L487 279z"
     style="fill:#90a5c3; stroke:none;" />
  <path
     id="path1355"
     d="M490 279L493 281L490 279M535 281L538 279L535 281z"
     style="fill:#bdd1a3; stroke:none;" />
  <path
     id="path1357"
     d="M532 281L532 282L542 280L532 281z"
     style="fill:#90a5c3; stroke:none;" />
  <path
     id="path1359"
     d="M582.333 279.667L582.667 280.333L582.333 279.667z"
     style="fill:#bdd1a3; stroke:none;" />
  <path
     id="path1361"
     d="M440 281C442.038 289.299 449.126 296.093 457 299L457 298L440 281z"
     style="fill:#90a5c3; stroke:none;" />
  <path
     id="path1363"
     d="M495 281L495 282L532 282L495 281M580 281L580 283L582 281L580 281z"
     style="fill:#bdd1a3; stroke:none;" />
  <path
     id="path1365"
     d="M517 283L517 284L531 283L517 283M579 282L574 289L579 282z"
     style="fill:#90a5c3; stroke:none;" />
  <path
     id="path1367"
     d="M440 284L440 286L442 286L442 284L440 284M578 284L578 286L580 284L578 284M577 286L578 287L577 286M442.333 287.667L442.667 288.333L442.333 287.667M576 287L575 289L577 289L576 287M444 289L445 290L444 289z"
     style="fill:#bdd1a3; stroke:none;" />
  <path
     id="path1369"
     d="M572 289L560 299C563.893 297.357 572.278 293.813 572 289z"
     style="fill:#90a5c3; stroke:none;" />
  <path
     id="path1371"
     d="M573 289L573 291L575 291L575 289L573 289M445 291L446 292L445 291M572 291L573 292L572 291M446 292L447 293L446 292M570.333 292.667L570.667 293.333L570.333 292.667M447 293L448 294L447 293M448.667 294.333L449.333 294.667L448.667 294.333M567 294L565 297L567 294M450.667 296.333L451.333 296.667L450.667 296.333M452 297L455 299L452 297M562.333 297.667L562.667 298.333L562.333 297.667M457 299L462 302L462 301L457 299z"
     style="fill:#bdd1a3; stroke:none;" />
  <path
     id="path1373"
     d="M459 299L462 301L459 299M545 303L545 304L557 299L545 303z"
     style="fill:#90a5c3; stroke:none;" />
  <path
     id="path1375"
     d="M557 301L560 300L557 301z"
     style="fill:#bdd1a3; stroke:none;" />
  <path
     id="path1377"
     d="M462 301L462 302L471 304L462 301z"
     style="fill:#90a5c3; stroke:none;" />
  <path
     id="path1379"
     d="M553 301L553 302L557 302L553 301M464 302L465 303L464 302M548 303L548 304L552 303L548 303M465.667 303.333L466.333 303.667L465.667 303.333M473 304L473 305L487 307L473 304z"
     style="fill:#bdd1a3; stroke:none;" />
  <path
     id="path1381"
     d="M477 304L477 305L485 306L477 304M530 305L530 306L538 305L530 305z"
     style="fill:#90a5c3; stroke:none;" />
  <path
     id="path1383"
     d="M528 306L528 307L543 305L528 306z"
     style="fill:#bdd1a3; stroke:none;" />
  <path
     id="path1385"
     d="M487 306L487 307L528 307C517.25 302.489 498.696 306 487 306z"
     style="fill:#90a5c3; stroke:none;" />
  <path
     id="path1387"
     d="M492 307L492 308L518 308L492 307z"
     style="fill:#bdd1a3; stroke:none;" />
</svg>
