<?xml version="1.0" encoding="UTF-8"?>
<svg width="400" height="684" enable-background="new 0 0 512 512" version="1.1" viewBox="0 0 400 684" xml:space="preserve" xmlns="http://www.w3.org/2000/svg" xmlns:cc="http://creativecommons.org/ns#" xmlns:dc="http://purl.org/dc/elements/1.1/" xmlns:rdf="http://www.w3.org/1999/02/22-rdf-syntax-ns#" xmlns:xlink="http://www.w3.org/1999/xlink"><defs><linearGradient id="Button-flat-ring" x1="186.2" x2="324.72" y1="135.59" y2="375.32" gradientTransform="matrix(.99511 0 0 1 -134.75 -135)" gradientUnits="userSpaceOnUse" xlink:href="#linearGradientOuterRing"><stop stop-color="#a4a4a4" offset="0"/><stop stop-color="#e1e1e1" offset="1"/></linearGradient><linearGradient id="linearGradientOuterRing" x1="98.66" x2="140.98" y1="7.7561" y2="77.632" gradientTransform="scale(.99763 1.0024)" gradientUnits="userSpaceOnUse"><stop stop-color="#ccc" offset="0"/><stop stop-color="#737373" offset="1"/></linearGradient><linearGradient id="linearGradient1665" x1="97.392" x2="141.9" y1="127.02" y2="199.04" gradientUnits="userSpaceOnUse"><stop stop-color="#e1e1e1" offset="0"/><stop stop-color="#a4a4a4" offset="1"/></linearGradient><linearGradient id="linearGradient1667" x1="91.343" x2="140.91" y1="7.637" y2="73.924" gradientTransform="scale(.99781 1.0022)" gradientUnits="userSpaceOnUse" xlink:href="#ring"><stop stop-color="#646464" offset="0"/><stop stop-color="#e1e1e1" offset="1"/></linearGradient><linearGradient id="body" x1="50.995" x2="191" y1="120" y2="120" gradientUnits="userSpaceOnUse" xlink:href="#linearGradient1665"><stop stop-color="#e1e1e1" offset="0"/><stop stop-color="#a4a4a4" offset="1"/></linearGradient><linearGradient id="linearGradient32570" x1="97.392" x2="141.9" y1="127.02" y2="199.04" gradientUnits="userSpaceOnUse" xlink:href="#linearGradient1665"/><linearGradient id="linearGradient32572" x1="98.66" x2="140.98" y1="7.7561" y2="77.632" gradientTransform="scale(.99763 1.0024)" gradientUnits="userSpaceOnUse" xlink:href="#linearGradientOuterRing"/></defs><g transform="matrix(2.8369 0 0 2.8382 -141.84 6e-5)"><path id="pathBodyShadow" d="m109.64 1.5643c-16.792 3.2072-29.558 14.457-35.008 30.937-.6874 1.9737-1.9149 7.2532-2.7496 11.743-1.6694 9.0295-4.6154 24.276-8.5925 45.147-1.473 7.5986-4.4681 23.141-6.6285 34.539s-4.419 22.894-4.91 25.51c-5.4501 27.582 2.0131 55.213 19.395 71.841 13.846 13.273 33.388 20.575 52.292 19.638 26.809-1.3816 46.94-14.556 58.871-38.634 4.1735-8.3387 6.7267-18.306 7.4141-28.865.7365-10.954.7856-10.46-10.016-58.618-5.9902-26.891-11.539-51.562-14.976-67.104-1.3748-6.1183-3.0933-12.779-3.7807-14.802-5.4992-15.789-16.841-26.842-31.375-30.592-5.2046-1.3816-14.828-1.727-19.935-.74012zm13.846 11.595c11.293 2.1217 21.162 11.299 24.108 22.352 1.0802 4.0953 1.2275 10.707.3928 14.95-2.0131 10.115-10.802 19.638-21.26 22.993-3.7807 1.2335-12.079 1.4309-16.056.44407-3.437-.88814-8.838-3.5032-11.882-5.8223-3.0442-2.319-6.7267-6.9572-8.6907-10.855-2.3568-4.7368-3.1424-8.8321-2.8969-15.197.1964-4.5888.491-6.0197 1.7676-9.3749 5.4501-14.013 19.984-22.204 34.517-19.49z" fill="none"/><g><path id="pathBody" d="m110.64.56427c-16.792 3.2072-29.558 14.457-35.008 30.937-.6874 1.9737-1.9149 7.2532-2.7496 11.743-1.6694 9.0295-4.6154 24.276-8.5925 45.147-1.473 7.5986-4.4681 23.141-6.6285 34.539s-4.419 22.894-4.91 25.51c-5.4501 27.582 2.0131 55.213 19.395 71.841 13.846 13.273 33.388 20.575 52.292 19.638 26.809-1.3816 46.94-14.556 58.871-38.634 4.1735-8.3387 6.7267-18.306 7.4141-28.865.7365-10.954.7856-10.46-10.016-58.618-5.9902-26.891-11.539-51.562-14.976-67.104-1.3748-6.1183-3.0933-12.779-3.7807-14.802-5.4992-15.789-16.841-26.842-31.375-30.592-5.2046-1.3816-14.828-1.727-19.935-.74012zm13.846 11.595c11.293 2.1217 21.162 11.299 24.108 22.352 1.0802 4.0953 1.2275 10.707.3928 14.95-2.0131 10.115-10.802 19.638-21.26 22.993-3.7807 1.2335-12.079 1.4309-16.056.44407-3.437-.88814-8.838-3.5032-11.882-5.8223-3.0442-2.319-6.7267-6.9572-8.6907-10.855-2.3568-4.7368-3.1424-8.8321-2.8969-15.197.1964-4.5888.491-6.0197 1.7676-9.3749 5.4501-14.013 19.984-22.204 34.517-19.49z" fill="url(#body)"/><ellipse id="pathButtonSocket" cx="118.81" cy="166.02" rx="45.278" ry="45.5" fill="#ccc"/><ellipse id="circleButton" cx="119.3" cy="165.83" rx="40.372" ry="40.57" fill="url(#Button-flat-ring)" stroke="url(#linearGradient32570)" stroke-linecap="square" stroke-width="1.2"/></g><ellipse id="circleHoleInnerRing" cx="118.04" cy="42.645" rx="31.157" ry="31.31" fill="none" stroke="url(#linearGradient1667)" stroke-linecap="square" stroke-width="7.3618"/><ellipse id="pathHoleOuterRing" cx="118.09" cy="42.772" rx="33.775" ry="33.941" fill="none" stroke="url(#linearGradient32572)" stroke-linecap="square" stroke-width="2.1131"/></g><metadata><rdf:RDF><cc:Work rdf:about=""><dc:title/><dc:format>image/svg+xml</dc:format><dc:type rdf:resource="http://purl.org/dc/dcmitype/StillImage"/></cc:Work></rdf:RDF></metadata></svg>
