<?xml version="1.0" encoding="UTF-8"?>
<svg enable-background="new 0 0 512 512" version="1.1" viewBox="0 0 512 512" xml:space="preserve" xmlns="http://www.w3.org/2000/svg" xmlns:cc="http://creativecommons.org/ns#" xmlns:dc="http://purl.org/dc/elements/1.1/" xmlns:rdf="http://www.w3.org/1999/02/22-rdf-syntax-ns#"><metadata><rdf:RDF><cc:Work rdf:about=""><dc:format>image/svg+xml</dc:format><dc:type rdf:resource="http://purl.org/dc/dcmitype/StillImage"/><dc:title/></cc:Work></rdf:RDF></metadata><linearGradient id="SVGID_1_" x1="-2.7e-6" x2="512" y1="256" y2="256" gradientUnits="userSpaceOnUse"><stop stop-color="#B49A85" offset="0"/><stop stop-color="#B0957F" offset=".06508"/><stop stop-color="#A88A71" offset=".28565"/><stop stop-color="#A38369" offset=".55386"/><stop stop-color="#A18166" offset="1"/></linearGradient><circle cx="256" cy="256" r="256" fill="url(#SVGID_1_)"/><linearGradient id="SVGID_2_" x1="42.667" x2="469.33" y1="256" y2="256" gradientUnits="userSpaceOnUse"><stop stop-color="#A18166" offset="0"/><stop stop-color="#A38369" offset=".44614"/><stop stop-color="#A88A71" offset=".71435"/><stop stop-color="#B0957F" offset=".93492"/><stop stop-color="#B49A85" offset="1"/></linearGradient><path d="m256 469.33c-117.63 0-213.33-95.702-213.33-213.33 0-117.63 95.702-213.33 213.33-213.33 117.64 0 213.33 95.702 213.33 213.33 0 117.63-95.697 213.33-213.33 213.33z" fill="url(#SVGID_2_)"/><path id="XMLID_78_" d="m228.88 285.55v34.813l-84.885-78.04 84.885-78.04.0006104 39.292c88.685 0 155.11 40.107 155.11 128.79 0 10.729-1.0518 21.211-3.0582 31.35 0 0-50.323-78.166-152.06-78.169z" opacity=".3"/><path id="XMLID_2251_" d="m220.88 277.55v34.813l-84.885-78.04 84.885-78.04.0006104 39.292c88.685 0 155.11 40.107 155.11 128.79 0 10.729-1.0518 21.211-3.0582 31.35 0 0-50.323-78.166-152.06-78.169z" fill="#fff"/></svg>
