<?xml version="1.0" encoding="UTF-8"?>
<svg enable-background="new 0 0 512 512" version="1.1" viewBox="0 0 512 512" xml:space="preserve" xmlns="http://www.w3.org/2000/svg" xmlns:cc="http://creativecommons.org/ns#" xmlns:dc="http://purl.org/dc/elements/1.1/" xmlns:rdf="http://www.w3.org/1999/02/22-rdf-syntax-ns#"><metadata><rdf:RDF><cc:Work rdf:about=""><dc:format>image/svg+xml</dc:format><dc:type rdf:resource="http://purl.org/dc/dcmitype/StillImage"/><dc:title/></cc:Work></rdf:RDF></metadata><linearGradient id="SVGID_1_" x1="3.8e-6" x2="512" y1="256" y2="256" gradientUnits="userSpaceOnUse"><stop stop-color="#FFCA05" offset="0"/><stop stop-color="#FAAC18" offset="1"/></linearGradient><circle cx="256" cy="256" r="256" fill="url(#SVGID_1_)"/><linearGradient id="SVGID_2_" x1="42.667" x2="469.33" y1="256" y2="256" gradientUnits="userSpaceOnUse"><stop stop-color="#FAAC18" offset="0"/><stop stop-color="#FFCA05" offset="1"/></linearGradient><path d="m256 469.33c-117.63 0-213.33-95.702-213.33-213.33 0-117.63 95.702-213.33 213.33-213.33 117.64 0 213.33 95.702 213.33 213.33 0 117.63-95.697 213.33-213.33 213.33z" fill="url(#SVGID_2_)"/><rect id="XMLID_108_" transform="matrix(6.1232e-17 -1 1 6.1232e-17 -2e-7 528)" x="244" y="144" width="40" height="240" opacity=".3"/><rect id="XMLID_188_" transform="matrix(6.1232e-17 -1 1 6.1232e-17 -9.0949e-13 512)" x="236" y="136" width="40" height="240" fill="#fff"/></svg>
