<?xml version="1.0" encoding="UTF-8"?>
<svg enable-background="new 0 0 512 512" version="1.1" viewBox="0 0 512 512" xml:space="preserve" xmlns="http://www.w3.org/2000/svg" xmlns:cc="http://creativecommons.org/ns#" xmlns:dc="http://purl.org/dc/elements/1.1/" xmlns:rdf="http://www.w3.org/1999/02/22-rdf-syntax-ns#"><metadata><rdf:RDF><cc:Work rdf:about=""><dc:format>image/svg+xml</dc:format><dc:type rdf:resource="http://purl.org/dc/dcmitype/StillImage"/><dc:title/></cc:Work></rdf:RDF></metadata><linearGradient id="SVGID_1_" x1="3.8e-6" x2="512" y1="256" y2="256" gradientUnits="userSpaceOnUse"><stop stop-color="#33B49D" offset="0"/><stop stop-color="#00A185" offset="1"/></linearGradient><circle cx="256" cy="256" r="256" fill="url(#SVGID_1_)"/><linearGradient id="SVGID_2_" x1="42.667" x2="469.33" y1="256" y2="256" gradientUnits="userSpaceOnUse"><stop stop-color="#00A185" offset="0"/><stop stop-color="#33B49D" offset="1"/></linearGradient><path d="m256 469.33c-117.63 0-213.33-95.702-213.33-213.33 0-117.63 95.702-213.33 213.33-213.33 117.64 0 213.33 95.702 213.33 213.33 0 117.63-95.697 213.33-213.33 213.33z" fill="url(#SVGID_2_)"/><polygon id="XMLID_109_" points="384 242.54 285.46 242.54 285.46 144 242.54 144 242.54 242.54 144 242.54 144 285.46 242.54 285.46 242.54 384 285.46 384 285.46 285.46 384 285.46" opacity=".3"/><polygon id="XMLID_189_" points="376 234.54 277.46 234.54 277.46 136 234.54 136 234.54 234.54 136 234.54 136 277.46 234.54 277.46 234.54 376 277.46 376 277.46 277.46 376 277.46" fill="#fff"/></svg>
